<svg xmlns="http://www.w3.org/2000/svg" width="45" height="100" viewBox="0 0 45 100"><path d="M21.2 16.7c3.6 0 6.6 3 6.6 6.6 0 3.6-3 6.6-6.6 6.6-3.6 0-6.6-3-6.6-6.6 0-3.6 3-6.6 6.6-6.6m0-1.5c-4.5 0-8.1 3.6-8.1 8.1s3.6 8.1 8.1 8.1 8.1-3.6 8.1-8.1-3.6-8.1-8.1-8.1z" style="fill:#ffffff"/><path style="fill:#ffffff;stroke:#ffffff;stroke-width:1.50000000000000000;stroke-miterlimit:10" d="M26.2 28.2l6.7 6.6"/><path d="M22.1 66.3c4.7 0 8.5 3.8 8.5 8.5s-3.8 8.5-8.5 8.5-8.5-3.8-8.5-8.5 3.8-8.5 8.5-8.5m0-1.5c-5.5 0-10 4.5-10 10s4.5 10 10 10 10-4.5 10-10-4.5-10-10-10z" style="fill:#ffffff"/><path style="fill:#ffffff;stroke:#ffffff;stroke-width:1.50000000000000000;stroke-miterlimit:10" d="M17.6 70.3l9 8.9"/><path style="fill:#ffffff;stroke:#ffffff;stroke-width:1.50000000000000000;stroke-miterlimit:10;stroke-opacity:1" d="M17.6 79.2l9-8.9"/></svg>