<?xml version="1.0" encoding="utf-8"?>
<!-- Generator: Adobe Illustrator 16.0.4, SVG Export Plug-In . SVG Version: 6.00 Build 0)  -->
<!DOCTYPE svg PUBLIC "-//W3C//DTD SVG 1.1//EN" "http://www.w3.org/Graphics/SVG/1.1/DTD/svg11.dtd">
<svg version="1.1" id="Layer_1" xmlns="http://www.w3.org/2000/svg" xmlns:xlink="http://www.w3.org/1999/xlink" x="0px" y="0px"
	 width="70px" height="70px" viewBox="0 0 70 70" enable-background="new 0 0 70 70" xml:space="preserve">
<g>
	<path fill="none" stroke="#00B6B7" stroke-width="3" stroke-miterlimit="10" d="M28.7,26c0.3-1.1,0.5-2.3,0.5-3.5
		c0-7.4-6-13.3-13.3-13.3c-7.4,0-13.3,6-13.3,13.3s6,13.3,13.3,13.3c2.2,0,4.3-0.5,6.1-1.5"/>
	<path fill="none" stroke="#00B6B7" stroke-width="3" stroke-miterlimit="10" d="M47.7,34.2c1.9,1.1,4.1,1.7,6.5,1.7
		c7.4,0,13.3-6,13.3-13.3s-6-13.3-13.3-13.3s-13.3,6-13.3,13.3c0,1.3,0.2,2.5,0.5,3.7"/>
	<circle fill="none" stroke="#00B6B7" stroke-width="3" stroke-miterlimit="10" cx="34.8" cy="37.9" r="13.3"/>
	<g>
		<path fill="none" stroke="#00B6B7" stroke-width="3" stroke-linecap="round" stroke-miterlimit="10" d="M28,49.3
			c-3.9,2.3-6.5,6.6-6.5,11.5"/>
		<path fill="none" stroke="#00B6B7" stroke-width="3" stroke-linecap="round" stroke-miterlimit="10" d="M48.2,60.8
			c0-4.9-2.6-9.1-6.5-11.5"/>
	</g>
	<g>
		<path fill="none" stroke="#00B6B7" stroke-width="3" stroke-linecap="round" stroke-miterlimit="10" d="M67.5,45.5
			c0-4.9-2.6-9.1-6.5-11.4"/>
	</g>
	<g>
		<path fill="none" stroke="#00B6B7" stroke-width="3" stroke-linecap="round" stroke-miterlimit="10" d="M9,34.1
			c-3.9,2.3-6.5,6.6-6.5,11.4"/>
	</g>
</g>
</svg>
