<?xml version="1.0" encoding="utf-8"?>
<!-- Generator: Adobe Illustrator 16.0.4, SVG Export Plug-In . SVG Version: 6.00 Build 0)  -->
<!DOCTYPE svg PUBLIC "-//W3C//DTD SVG 1.1//EN" "http://www.w3.org/Graphics/SVG/1.1/DTD/svg11.dtd">
<svg version="1.1" id="Layer_1" xmlns="http://www.w3.org/2000/svg" xmlns:xlink="http://www.w3.org/1999/xlink" x="0px" y="0px"
	 width="70px" height="70px" viewBox="0 0 70 70" enable-background="new 0 0 70 70" xml:space="preserve">
<g>
	<g>
		<polygon fill="none" stroke="#00B6B7" stroke-width="3" stroke-miterlimit="10" points="16.7,5 10,5 10,18.3 6.7,18.3 6.7,65 
			63.3,65 63.3,8.3 53.3,18.3 50,18.3 50,8.3 40,18.3 36.7,18.3 36.7,8.3 26.7,18.3 23.3,18.3 23.3,8.3 		"/>
	</g>
	<g>
		<g>
			<polygon fill="#00B6B7" points="19.1,24.6 15.6,24.6 15.6,28.1 19.1,28.1 19.1,24.6 			"/>
		</g>
	</g>
	<g>
		<g>
			<polygon fill="#00B6B7" points="26.2,24.6 22.6,24.6 22.6,28.1 26.2,28.1 26.2,24.6 			"/>
		</g>
	</g>
	<g>
		<g>
			<polygon fill="#00B6B7" points="33.2,24.6 29.7,24.6 29.7,28.1 33.2,28.1 33.2,24.6 			"/>
		</g>
	</g>
	<g>
		<g>
			<polygon fill="#00B6B7" points="40.3,24.6 36.8,24.6 36.8,28.1 40.3,28.1 40.3,24.6 			"/>
		</g>
	</g>
	<g>
		<g>
			<polygon fill="#00B6B7" points="47.3,24.6 43.8,24.6 43.8,28.1 47.3,28.1 47.3,24.6 			"/>
		</g>
	</g>
	<g>
		<g>
			<polygon fill="#00B6B7" points="54.4,24.6 50.9,24.6 50.9,28.1 54.4,28.1 54.4,24.6 			"/>
		</g>
	</g>
	<g>
		<g>
			<polygon fill="#00B6B7" points="19.1,31.6 15.6,31.6 15.6,35.1 19.1,35.1 19.1,31.6 			"/>
		</g>
	</g>
	<g>
		<g>
			<polygon fill="#00B6B7" points="26.2,31.6 22.6,31.6 22.6,35.1 26.2,35.1 26.2,31.6 			"/>
		</g>
	</g>
	<g>
		<g>
			<polygon fill="#00B6B7" points="33.2,31.6 29.7,31.6 29.7,35.1 33.2,35.1 33.2,31.6 			"/>
		</g>
	</g>
	<g>
		<g>
			<polygon fill="#00B6B7" points="40.3,31.6 36.8,31.6 36.8,35.1 40.3,35.1 40.3,31.6 			"/>
		</g>
	</g>
	<g>
		<g>
			<polygon fill="#00B6B7" points="47.3,31.6 43.8,31.6 43.8,35.1 47.3,35.1 47.3,31.6 			"/>
		</g>
	</g>
	<g>
		<g>
			<polygon fill="#00B6B7" points="54.4,31.6 50.9,31.6 50.9,35.1 54.4,35.1 54.4,31.6 			"/>
		</g>
	</g>
	<g>
		<g>
			<polygon fill="#00B6B7" points="19.1,38.7 15.6,38.7 15.6,42.2 19.1,42.2 19.1,38.7 			"/>
		</g>
	</g>
	<g>
		<g>
			<polygon fill="#00B6B7" points="26.2,38.7 22.6,38.7 22.6,42.2 26.2,42.2 26.2,38.7 			"/>
		</g>
	</g>
	<g>
		<g>
			<polygon fill="#00B6B7" points="33.2,38.7 29.7,38.7 29.7,42.2 33.2,42.2 33.2,38.7 			"/>
		</g>
	</g>
	<g>
		<g>
			<polygon fill="#00B6B7" points="40.3,38.7 36.8,38.7 36.8,42.2 40.3,42.2 40.3,38.7 			"/>
		</g>
	</g>
	<g>
		<g>
			<polygon fill="#00B6B7" points="47.3,38.7 43.8,38.7 43.8,42.2 47.3,42.2 47.3,38.7 			"/>
		</g>
	</g>
	<g>
		<g>
			<polygon fill="#00B6B7" points="54.4,38.7 50.9,38.7 50.9,42.2 54.4,42.2 54.4,38.7 			"/>
		</g>
	</g>
	<g>
		<g>
			<polygon fill="#00B6B7" points="19.1,45.7 15.6,45.7 15.6,49.2 19.1,49.2 19.1,45.7 			"/>
		</g>
	</g>
	<g>
		<g>
			<polygon fill="#00B6B7" points="26.2,45.7 22.6,45.7 22.6,49.2 26.2,49.2 26.2,45.7 			"/>
		</g>
	</g>
	<g>
		<g>
			<polygon fill="#00B6B7" points="33.2,45.7 29.7,45.7 29.7,49.2 33.2,49.2 33.2,45.7 			"/>
		</g>
	</g>
	<g>
		<g>
			<polygon fill="#00B6B7" points="40.3,45.7 36.8,45.7 36.8,49.2 40.3,49.2 40.3,45.7 			"/>
		</g>
	</g>
	<g>
		<g>
			<polygon fill="#00B6B7" points="47.3,45.7 43.8,45.7 43.8,49.2 47.3,49.2 47.3,45.7 			"/>
		</g>
	</g>
	<g>
		<g>
			<polygon fill="#00B6B7" points="54.4,45.7 50.9,45.7 50.9,49.2 54.4,49.2 54.4,45.7 			"/>
		</g>
	</g>
	<g>
		<g>
			<polygon fill="#00B6B7" points="19.1,52.8 15.6,52.8 15.6,56.3 19.1,56.3 19.1,52.8 			"/>
		</g>
	</g>
	<g>
		<g>
			<polygon fill="#00B6B7" points="26.2,52.8 22.6,52.8 22.6,56.3 26.2,56.3 26.2,52.8 			"/>
		</g>
	</g>
	<g>
		<g>
			<polygon fill="#00B6B7" points="33.2,52.8 29.7,52.8 29.7,56.3 33.2,56.3 33.2,52.8 			"/>
		</g>
	</g>
	<g>
		<g>
			<polygon fill="#00B6B7" points="40.3,52.8 36.8,52.8 36.8,56.3 40.3,56.3 40.3,52.8 			"/>
		</g>
	</g>
	<g>
		<g>
			<polygon fill="#00B6B7" points="47.3,52.8 43.8,52.8 43.8,56.3 47.3,56.3 47.3,52.8 			"/>
		</g>
	</g>
	<g>
		<g>
			<polygon fill="#00B6B7" points="54.4,52.8 50.9,52.8 50.9,56.3 54.4,56.3 54.4,52.8 			"/>
		</g>
	</g>
</g>
</svg>
