<?xml version="1.0" encoding="utf-8"?>
<!-- Generator: Adobe Illustrator 16.0.4, SVG Export Plug-In . SVG Version: 6.00 Build 0)  -->
<!DOCTYPE svg PUBLIC "-//W3C//DTD SVG 1.1//EN" "http://www.w3.org/Graphics/SVG/1.1/DTD/svg11.dtd">
<svg version="1.1" id="Layer_1" xmlns="http://www.w3.org/2000/svg" xmlns:xlink="http://www.w3.org/1999/xlink" x="0px" y="0px"
	 width="70px" height="70px" viewBox="0 0 70 70" enable-background="new 0 0 70 70" xml:space="preserve">
<g>
	<g>
		<g>
			<polygon fill="#00B8B9" points="22.6,31.4 19,31.4 19,35 22.6,35 22.6,31.4 			"/>
		</g>
	</g>
	<g>
		<g>
			<polygon fill="#00B8B9" points="29.7,31.4 26.1,31.4 26.1,35 29.7,35 29.7,31.4 			"/>
		</g>
	</g>
	<g>
		<g>
			<polygon fill="#00B8B9" points="29.7,42.1 26.1,42.1 26.1,45.7 29.7,45.7 29.7,42.1 			"/>
		</g>
	</g>
	<g>
		<g>
			<polygon fill="#00B8B9" points="36.8,31.4 33.2,31.4 33.2,35 36.8,35 36.8,31.4 			"/>
		</g>
	</g>
	<g>
		<g>
			<polygon fill="#00B8B9" points="29.7,20.8 26.1,20.8 26.1,24.3 29.7,24.3 29.7,20.8 			"/>
		</g>
	</g>
	<path fill="none" stroke="#00B8B9" stroke-width="3" stroke-miterlimit="10" d="M51,10.1V3H33.2v10.7l-14.2,0v10.7L4.8,24.2V67
		h60.4V10.1H51z"/>
	<g>
		<g>
			<polygon fill="#00B8B9" points="36.8,20.8 33.2,20.8 33.2,24.3 36.8,24.3 36.8,20.8 			"/>
		</g>
	</g>
	<g>
		<g>
			<polygon fill="#00B8B9" points="15.4,42.1 11.9,42.1 11.9,45.7 15.4,45.7 15.4,42.1 			"/>
		</g>
	</g>
	<g>
		<g>
			<polygon fill="#00B8B9" points="22.6,42.1 19,42.1 19,45.7 22.6,45.7 22.6,42.1 			"/>
		</g>
	</g>
	<g>
		<g>
			<polygon fill="#00B8B9" points="15.4,31.4 11.9,31.4 11.9,35 15.4,35 15.4,31.4 			"/>
		</g>
	</g>
	<g>
		<g>
			<polygon fill="#00B8B9" points="51,31.4 47.4,31.4 47.4,35 51,35 51,31.4 			"/>
		</g>
	</g>
	<g>
		<g>
			<polygon fill="#00B8B9" points="58.1,31.4 54.6,31.4 54.6,35 58.1,35 58.1,31.4 			"/>
		</g>
	</g>
	<g>
		<g>
			<polygon fill="#00B8B9" points="51,42.1 47.4,42.1 47.4,45.7 51,45.7 51,42.1 			"/>
		</g>
	</g>
	<g>
		<g>
			<polygon fill="#00B8B9" points="51,20.8 47.4,20.8 47.4,24.3 51,24.3 51,20.8 			"/>
		</g>
	</g>
	<g>
		<g>
			<polygon fill="#00B8B9" points="36.8,42.1 33.2,42.1 33.2,45.7 36.8,45.7 36.8,42.1 			"/>
		</g>
	</g>
	<g>
		<g>
			<polygon fill="#00B8B9" points="58.1,42.1 54.6,42.1 54.6,45.7 58.1,45.7 58.1,42.1 			"/>
		</g>
	</g>
	<g>
		<g>
			<polygon fill="#00B8B9" points="58.1,20.8 54.6,20.8 54.6,24.3 58.1,24.3 58.1,20.8 			"/>
		</g>
	</g>
	<g>
		<g>
			<polygon fill="#00B8B9" points="43.9,20.8 40.3,20.8 40.3,24.3 43.9,24.3 43.9,20.8 			"/>
		</g>
	</g>
	<g>
		<g>
			<polygon fill="#00B8B9" points="43.9,10.1 40.3,10.1 40.3,13.7 43.9,13.7 43.9,10.1 			"/>
		</g>
	</g>
	<g>
		<g>
			<polygon fill="#00B8B9" points="43.9,42.1 40.3,42.1 40.3,45.7 43.9,45.7 43.9,42.1 			"/>
		</g>
	</g>
	<g>
		<g>
			<polygon fill="#00B8B9" points="43.9,31.4 40.3,31.4 40.3,35 43.9,35 43.9,31.4 			"/>
		</g>
	</g>
</g>
</svg>
