<svg fill="none" xmlns="http://www.w3.org/2000/svg" height="32" viewBox="0 0 707 88" width="258"><path fill-rule="evenodd" clip-rule="evenodd" d="M16 21a4 4 0 0 1 4-4h46a4 4 0 0 1 4 4v46a4 4 0 0 1-4 4H20a4 4 0 0 1-4-4V21zm8 5a1 1 0 0 1 1-1h6a1 1 0 0 1 1 1v6a1 1 0 0 1-1 1h-6a1 1 0 0 1-1-1v-6zm11-1a1 1 0 0 0-1 1v6a1 1 0 0 0 1 1h6a1 1 0 0 0 1-1v-6a1 1 0 0 0-1-1h-6zm9 1a1 1 0 0 1 1-1h6a1 1 0 0 1 1 1v6a1 1 0 0 1-1 1h-6a1 1 0 0 1-1-1v-6zm-19 9a1 1 0 0 0-1 1v6a1 1 0 0 0 1 1h6a1 1 0 0 0 1-1v-6a1 1 0 0 0-1-1h-6zm9 1a1 1 0 0 1 1-1h6a1 1 0 0 1 1 1v6a1 1 0 0 1-1 1h-6a1 1 0 0 1-1-1v-6zm21-1a1 1 0 0 0-1 1v6a1 1 0 0 0 1 1h6a1 1 0 0 0 1-1v-6a1 1 0 0 0-1-1h-6zM24 46a1 1 0 0 1 1-1h6a1 1 0 0 1 1 1v6a1 1 0 0 1-1 1h-6a1 1 0 0 1-1-1v-6zm21-1a1 1 0 0 0-1 1v6a1 1 0 0 0 1 1h6a1 1 0 0 0 1-1v-6a1 1 0 0 0-1-1h-6zm9 1a1 1 0 0 1 1-1h6a1 1 0 0 1 1 1v6a1 1 0 0 1-1 1h-6a1 1 0 0 1-1-1v-6zm-19 9a1 1 0 0 0-1 1v6a1 1 0 0 0 1 1h6a1 1 0 0 0 1-1v-6a1 1 0 0 0-1-1h-6zm9 1a1 1 0 0 1 1-1h6a1 1 0 0 1 1 1v6a1 1 0 0 1-1 1h-6a1 1 0 0 1-1-1v-6zm11-1a1 1 0 0 0-1 1v6a1 1 0 0 0 1 1h6a1 1 0 0 0 1-1v-6a1 1 0 0 0-1-1h-6z" fill="#fff"></path><path d="M114.4 66.3H90.7v-49c0-.3-.2-.5-.5-.5h-3.7c-.3 0-.5.2-.5.5v52.6c0 .3.2.5.5.5h27.9c.3 0 .5-.2.5-.5v-3.2c0-.2-.2-.4-.5-.4zM149.5 31.1h-8.4v-7.8c0-5.5 1.8-8.2 5.5-8.2 1.5 0 3 .4 4.4 1 .1.1.3.1.4 0l.3-.3 1-2.9c.1-.2 0-.5-.3-.6-1.9-.8-4-1.3-5.8-1.3-6.4 0-10 4.3-10 12v8.1l-4.8.3c-.3 0-.5.2-.5.5v2.7c0 .3.2.5.5.5h4.8v34.8c0 .3.2.5.5.5h3.5c.3 0 .5-.2.5-.5V35.1h8.4c.3 0 .5-.2.5-.5v-3.1c0-.2-.2-.4-.5-.4zM167.7 30.1c-8.3 0-17.2 7.3-17.2 20.7 0 12.1 7.5 20.6 18.2 20.6 5.7 0 9.2-1.9 12.4-3.8.2-.1.3-.4.2-.7l-1.5-2.7c-.1-.1-.2-.2-.3-.2-.1 0-.3 0-.4.1-3.2 2.3-6.4 3.3-10 3.3-8.1 0-13.6-6.3-13.9-15.6h27.1c.2 0 .4-.2.5-.4.2-1 .2-2.1.2-3-.2-11.5-5.8-18.3-15.3-18.3zm-12.6 17.7c.9-8.1 6-13.7 12.6-13.7 6.9 0 10.7 4.9 10.8 13.7h-23.4zM208.4 31c-1.2-.6-2.4-.8-4-.8-4 0-7.8 2.5-10.7 7.2l-.3-5.8c0-.3-.2-.5-.5-.5h-3c-.3 0-.5.2-.5.5V70c0 .3.2.5.5.5h3.5c.3 0 .5-.2.5-.5V44c2.4-6 6.1-9.5 10-9.5 1.4 0 2 .2 3.3.6h.4c.1-.1.2-.2.2-.3l.8-3.2c.1-.3 0-.5-.2-.6zM240 31.1h-3.1c-.3 0-.5.2-.5.5l-.2 2.9c-3.3-2.6-6.5-4.3-11.1-4.3-10.2 0-17.5 8.7-17.5 20.7 0 12.9 6.1 20.6 16.4 20.6 4.2 0 8.4-1.9 12.3-5.5l.3 4.1c0 .3.2.5.5.5h3c.3 0 .5-.2.5-.5V31.6c-.1-.3-.3-.5-.6-.5zm-4 7.8v22.3c-4.1 4.2-7.7 6-11.5 6-7.6 0-12.2-6.2-12.2-16.5 0-9.3 5.7-16.6 13-16.6 3.8.1 7 1.5 10.7 4.8zM278.2 31.3c-.1-.1-.2-.2-.4-.2h-3.6c-.2 0-.4.1-.5.3l-8.2 24.1c-.4 1.3-.9 2.7-1.3 4.1-.6 2-1.3 4-1.9 5.8-.8-2-1.6-4.2-2.4-6.3-.5-1.3-1-2.5-1.4-3.7l-9.2-24.1c-.1-.2-.3-.3-.5-.3H245c-.2 0-.3.1-.4.2-.1.1-.1.3 0 .5l15.7 38.9-1 3.2c-1.5 4.5-4.3 9.8-9.4 9.8-1 0-2.2-.3-3-.6h-.4l-.3.3-.8 3.1c-.1.2.1.5.3.6 1.1.5 2.7.8 4.1.8 5.9 0 10.5-4.5 13.4-13l15.1-43.2c.1 0 0-.2-.1-.3zM124.4 22.4c.6 0 1.1-.5 1.1-1.1v-3.6c0-.6-.5-1.1-1.1-1.1h-3.6c-.6 0-1.1.5-1.1 1.1v3.6c0 .6.5 1.1 1.1 1.1h3.6zM120.8 31.1h3.5c.3 0 .5.2.5.5V70c0 .3-.2.5-.5.5h-3.5c-.3 0-.5-.2-.5-.5V31.6c0-.3.2-.5.5-.5zM324.634 71.41c6.738 0 12.273-2.727 16.525-7.62l-4.973-5.857c-2.969 3.21-6.578 5.375-11.231 5.375-8.824 0-14.44-7.22-14.44-19.172 0-11.793 6.097-19.013 14.68-19.013 4.092 0 7.22 1.845 9.948 4.573l4.973-6.017c-3.289-3.53-8.583-6.658-15.161-6.658-13.236 0-23.986 10.188-23.986 27.355 0 17.408 10.429 27.034 23.665 27.034zM363.634 71.41c9.867 0 18.772-7.54 18.772-20.616 0-13.156-8.905-20.697-18.772-20.697-9.786 0-18.69 7.54-18.69 20.697 0 13.076 8.904 20.616 18.69 20.616zm0-7.54c-5.775 0-9.225-5.215-9.225-13.076 0-7.942 3.45-13.156 9.225-13.156 5.776 0 9.306 5.214 9.306 13.156 0 7.861-3.53 13.076-9.306 13.076zM389.933 70.448h9.225V42.932c3.048-3.289 5.856-4.893 8.263-4.893 4.171 0 6.096 2.406 6.096 8.904v23.505h9.226V42.932c3.048-3.289 5.775-4.893 8.262-4.893 4.091 0 6.017 2.406 6.017 8.904v23.505h9.305V45.74c0-9.947-3.85-15.643-12.193-15.643-4.974 0-8.905 3.048-12.675 7.06-1.845-4.413-5.134-7.06-10.91-7.06-4.893 0-8.744 2.808-12.033 6.337h-.32l-.642-5.374h-7.621v39.388zM455.935 70.448h9.226V42.932c3.048-3.289 5.856-4.893 8.262-4.893 4.172 0 6.097 2.406 6.097 8.904v23.505h9.225V42.932c3.049-3.289 5.776-4.893 8.263-4.893 4.091 0 6.016 2.406 6.016 8.904v23.505h9.306V45.74c0-9.947-3.851-15.643-12.193-15.643-4.974 0-8.905 3.048-12.675 7.06-1.845-4.413-5.134-7.06-10.91-7.06-4.893 0-8.744 2.808-12.033 6.337h-.321l-.642-5.374h-7.621v39.388zM533.65 71.41c5.375 0 9.226-2.647 12.675-6.738h.241l.722 5.776h7.54V31.06h-9.225v26.953c-2.968 3.851-5.295 5.455-8.744 5.455-4.252 0-6.097-2.406-6.097-8.904V31.06h-9.225v24.707c0 9.948 3.69 15.643 12.113 15.643zM564.909 70.448h9.225V42.932c3.289-3.209 5.535-4.893 8.985-4.893 4.332 0 6.177 2.406 6.177 8.904v23.505h9.225V45.74c0-9.947-3.69-15.643-12.113-15.643-5.375 0-9.386 2.808-12.915 6.257h-.321l-.642-5.294h-7.621v39.388zM608.193 70.448h9.226V31.06h-9.226v39.388zm4.653-46.287c3.289 0 5.696-2.166 5.696-5.215 0-3.128-2.407-5.294-5.696-5.294-3.289 0-5.696 2.166-5.696 5.294 0 3.049 2.407 5.215 5.696 5.215zM641.462 71.41c3.128 0 5.856-.722 8.022-1.444l-1.605-6.818c-1.123.48-2.727.882-4.091.882-3.77 0-5.535-2.246-5.535-6.899V38.36h10.028v-7.3h-10.028V20.31h-7.701l-1.123 10.75-6.097.4v6.9h5.616V57.13c0 8.503 3.369 14.28 12.514 14.28zM657.612 86.652c8.584 0 12.675-5.535 15.964-14.44l14.279-41.152h-8.904l-5.936 19.333c-.963 3.53-2.006 7.46-2.969 11.07h-.32c-1.204-3.69-2.327-7.62-3.45-11.07l-6.819-19.333h-9.385l15.482 38.906-.722 2.487c-1.283 3.93-3.69 6.739-7.861 6.739-.963 0-2.086-.321-2.808-.562l-1.685 7.22c1.444.481 2.968.802 5.134.802z" fill="#fff"></path></svg>