<?xml version="1.0" encoding="UTF-8"?>
<svg width="149px" height="28px" viewBox="0 0 149 28" version="1.1" xmlns="http://www.w3.org/2000/svg" xmlns:xlink="http://www.w3.org/1999/xlink">
	<!-- Generator: Sketch 51 (57462) - http://www.bohemiancoding.com/sketch -->
	<title>liferay-customer-portal-logo</title>
	<desc>Created with Sketch.</desc>
	<defs></defs>
	<g id="liferay-customer-portal-logo" stroke="none" stroke-width="1" fill="none" fill-rule="evenodd">
		<path d="M40.504,19.192 C39.8426634,19.192 39.2240029,19.0746678 38.648,18.84 C38.0719971,18.6053322 37.5733354,18.258669 37.152,17.8 C36.7306646,17.341331 36.3973346,16.7760034 36.152,16.104 C35.9066654,15.4319966 35.784,14.6640043 35.784,13.8 C35.784,12.9466624 35.9093321,12.1813367 36.16,11.504 C36.4106679,10.8266633 36.7519978,10.2533357 37.184,9.784 C37.6160022,9.31466432 38.1226638,8.95733456 38.704,8.712 C39.2853362,8.46666544 39.9066634,8.344 40.568,8.344 C41.2293366,8.344 41.8159974,8.477332 42.328,8.744 C42.8400026,9.010668 43.2613317,9.31999824 43.592,9.672 L42.6,10.872 C42.3226653,10.5946653 42.0240016,10.3733342 41.704,10.208 C41.3839984,10.0426658 41.0213354,9.96 40.616,9.96 C40.1893312,9.96 39.7973351,10.0479991 39.44,10.224 C39.0826649,10.4000009 38.7733346,10.650665 38.512,10.976 C38.2506654,11.301335 38.0480007,11.6986643 37.904,12.168 C37.7599993,12.6373357 37.688,13.1653304 37.688,13.752 C37.688,14.9466726 37.9466641,15.8826633 38.464,16.56 C38.9813359,17.2373367 39.6826622,17.576 40.568,17.576 C41.0373357,17.576 41.4533315,17.4773343 41.816,17.28 C42.1786685,17.0826657 42.5093318,16.8240016 42.808,16.504 L43.8,17.672 C43.3733312,18.1626691 42.8853361,18.5386654 42.336,18.8 C41.7866639,19.0613346 41.1760034,19.192 40.504,19.192 Z M47.72,19.192 C46.8773291,19.192 46.2640019,18.9226694 45.88,18.384 C45.4959981,17.8453306 45.304,17.0746717 45.304,16.072 L45.304,11.144 L47.144,11.144 L47.144,15.832 C47.144,16.4826699 47.239999,16.941332 47.432,17.208 C47.624001,17.474668 47.9333312,17.608 48.36,17.608 C48.701335,17.608 49.0026654,17.5226675 49.264,17.352 C49.5253346,17.1813325 49.8053318,16.9040019 50.104,16.52 L50.104,11.144 L51.944,11.144 L51.944,19 L50.44,19 L50.296,17.848 L50.248,17.848 C49.906665,18.2533354 49.536002,18.5786654 49.136,18.824 C48.735998,19.0693346 48.2640027,19.192 47.72,19.192 Z M56.472,19.192 C55.9279973,19.192 55.3920026,19.088001 54.864,18.88 C54.3359974,18.671999 53.8800019,18.4133349 53.496,18.104 L54.36,16.92 C54.7120018,17.1973347 55.0613316,17.4133326 55.408,17.568 C55.7546684,17.7226674 56.1306646,17.8 56.536,17.8 C56.9626688,17.8 57.2773323,17.7120009 57.48,17.536 C57.6826677,17.3599991 57.784,17.1333347 57.784,16.856 C57.784,16.6959992 57.7360005,16.5546673 57.64,16.432 C57.5439995,16.3093327 57.4160008,16.2000005 57.256,16.104 C57.0959992,16.0079995 56.9146677,15.9200004 56.712,15.84 C56.5093323,15.7599996 56.3066677,15.6773338 56.104,15.592 C55.8479987,15.4959995 55.586668,15.3840006 55.32,15.256 C55.053332,15.1279994 54.816001,14.9733342 54.608,14.792 C54.399999,14.6106658 54.229334,14.4000012 54.096,14.16 C53.962666,13.9199988 53.896,13.6346683 53.896,13.304 C53.896,12.6106632 54.1519974,12.0453355 54.664,11.608 C55.1760026,11.1706645 55.8746622,10.952 56.76,10.952 C57.3040027,10.952 57.7946645,11.047999 58.232,11.24 C58.6693355,11.432001 59.0479984,11.6506654 59.368,11.896 L58.52,13.016 C58.2426653,12.8133323 57.9626681,12.6506673 57.68,12.528 C57.3973319,12.4053327 57.1013349,12.344 56.792,12.344 C56.3973314,12.344 56.1066676,12.4266658 55.92,12.592 C55.7333324,12.7573342 55.64,12.9626654 55.64,13.208 C55.64,13.3680008 55.6853329,13.5039994 55.776,13.616 C55.8666671,13.7280006 55.9866659,13.8266662 56.136,13.912 C56.2853341,13.9973338 56.4586657,14.077333 56.656,14.152 C56.8533343,14.226667 57.0586656,14.301333 57.272,14.376 C57.538668,14.4720005 57.805332,14.5813327 58.072,14.704 C58.338668,14.8266673 58.5813322,14.9786658 58.8,15.16 C59.0186678,15.3413342 59.194666,15.5626654 59.328,15.824 C59.461334,16.0853346 59.528,16.3973315 59.528,16.76 C59.528,17.101335 59.461334,17.4186652 59.328,17.712 C59.194666,18.0053348 59.0000013,18.2613322 58.744,18.48 C58.4879987,18.6986678 58.1680019,18.8719994 57.784,19 C57.3999981,19.1280006 56.9626691,19.192 56.472,19.192 Z M63.944,19.192 C63.485331,19.192 63.0986682,19.1226674 62.784,18.984 C62.4693318,18.8453326 62.2133343,18.6506679 62.016,18.4 C61.8186657,18.1493321 61.6746671,17.8506684 61.584,17.504 C61.4933329,17.1573316 61.448,16.7706688 61.448,16.344 L61.448,12.6 L60.328,12.6 L60.328,11.224 L61.544,11.144 L61.768,9 L63.304,9 L63.304,11.144 L65.304,11.144 L65.304,12.6 L63.304,12.6 L63.304,16.344 C63.304,17.2613379 63.6719963,17.72 64.408,17.72 C64.5466674,17.72 64.6879993,17.7040002 64.832,17.672 C64.9760007,17.6399998 65.1066661,17.5973336 65.224,17.544 L65.544,18.904 C65.3306656,18.978667 65.0880014,19.045333 64.816,19.104 C64.5439986,19.162667 64.2533349,19.192 63.944,19.192 Z M70.168,19.192 C69.6773309,19.192 69.2080022,19.1013342 68.76,18.92 C68.3119978,18.7386658 67.9146684,18.4720018 67.568,18.12 C67.2213316,17.7679982 66.9466677,17.3360026 66.744,16.824 C66.5413323,16.3119974 66.44,15.7306699 66.44,15.08 C66.44,14.4293301 66.5413323,13.8480026 66.744,13.336 C66.9466677,12.8239974 67.2213316,12.3920018 67.568,12.04 C67.9146684,11.6879982 68.3119978,11.4186676 68.76,11.232 C69.2080022,11.0453324 69.6773309,10.952 70.168,10.952 C70.6586691,10.952 71.1306644,11.0453324 71.584,11.232 C72.0373356,11.4186676 72.434665,11.6879982 72.776,12.04 C73.117335,12.3920018 73.391999,12.8239974 73.6,13.336 C73.808001,13.8480026 73.912,14.4293301 73.912,15.08 C73.912,15.7306699 73.808001,16.3119974 73.6,16.824 C73.391999,17.3360026 73.117335,17.7679982 72.776,18.12 C72.434665,18.4720018 72.0373356,18.7386658 71.584,18.92 C71.1306644,19.1013342 70.6586691,19.192 70.168,19.192 Z M70.168,17.688 C70.7440029,17.688 71.1973317,17.450669 71.528,16.976 C71.8586683,16.501331 72.024,15.8693373 72.024,15.08 C72.024,14.279996 71.8586683,13.642669 71.528,13.168 C71.1973317,12.693331 70.7440029,12.456 70.168,12.456 C69.5919971,12.456 69.141335,12.693331 68.816,13.168 C68.490665,13.642669 68.328,14.279996 68.328,15.08 C68.328,15.8693373 68.490665,16.501331 68.816,16.976 C69.141335,17.450669 69.5919971,17.688 70.168,17.688 Z M75.736,19 L75.736,11.144 L77.256,11.144 L77.384,12.216 L77.448,12.216 C77.7786683,11.8639982 78.1386647,11.5653346 78.528,11.32 C78.9173353,11.0746654 79.3573309,10.952 79.848,10.952 C80.4240029,10.952 80.8853316,11.0746654 81.232,11.32 C81.5786684,11.5653346 81.8426658,11.9119978 82.024,12.36 C82.3973352,11.9546646 82.7866646,11.618668 83.192,11.352 C83.5973354,11.085332 84.0506642,10.952 84.552,10.952 C85.3840042,10.952 85.9973314,11.2213306 86.392,11.76 C86.7866686,12.2986694 86.984,13.0693283 86.984,14.072 L86.984,19 L85.128,19 L85.128,14.312 C85.128,13.6613301 85.0293343,13.202668 84.832,12.936 C84.6346657,12.669332 84.3333354,12.536 83.928,12.536 C83.4373309,12.536 82.888003,12.8613301 82.28,13.512 L82.28,19 L80.44,19 L80.44,14.312 C80.44,13.6613301 80.3413343,13.202668 80.144,12.936 C79.9466657,12.669332 79.6400021,12.536 79.224,12.536 C78.7333309,12.536 78.184003,12.8613301 77.576,13.512 L77.576,19 L75.736,19 Z M92.584,19.192 C92.0399973,19.192 91.5333357,19.0986676 91.064,18.912 C90.5946643,18.7253324 90.1840018,18.4560018 89.832,18.104 C89.4799982,17.7519982 89.2053343,17.3226692 89.008,16.816 C88.8106657,16.3093308 88.712,15.7306699 88.712,15.08 C88.712,14.4399968 88.8133323,13.8640026 89.016,13.352 C89.2186677,12.8399974 89.4879983,12.4080018 89.824,12.056 C90.1600017,11.7039982 90.5466645,11.432001 90.984,11.24 C91.4213355,11.047999 91.869331,10.952 92.328,10.952 C92.861336,10.952 93.3306646,11.0426658 93.736,11.224 C94.1413354,11.4053342 94.4799986,11.6613317 94.752,11.992 C95.0240014,12.3226683 95.2293326,12.717331 95.368,13.176 C95.5066674,13.634669 95.576,14.1359973 95.576,14.68 C95.576,14.8613342 95.5680001,15.0319992 95.552,15.192 C95.5359999,15.3520008 95.5173334,15.4799995 95.496,15.576 L90.504,15.576 C90.5893338,16.2800035 90.8373313,16.8213314 91.248,17.2 C91.6586687,17.5786686 92.1839968,17.768 92.824,17.768 C93.165335,17.768 93.4826652,17.7173338 93.776,17.616 C94.0693348,17.5146662 94.3599986,17.3733342 94.648,17.192 L95.272,18.344 C94.8986648,18.5893346 94.482669,18.7919992 94.024,18.952 C93.565331,19.1120008 93.0853358,19.192 92.584,19.192 Z M90.488,14.328 L93.976,14.328 C93.976,13.719997 93.8453346,13.2426684 93.584,12.896 C93.3226654,12.5493316 92.9200027,12.376 92.376,12.376 C91.9066643,12.376 91.4960018,12.5413317 91.144,12.872 C90.7919982,13.2026683 90.5733338,13.6879968 90.488,14.328 Z M97.336,19 L97.336,11.144 L98.856,11.144 L98.984,12.536 L99.048,12.536 C99.3253347,12.0239974 99.6613314,11.6320014 100.056,11.36 C100.450669,11.0879986 100.855998,10.952 101.272,10.952 C101.645335,10.952 101.943999,11.0053328 102.168,11.112 L101.848,12.712 C101.709333,12.6693331 101.581334,12.6373334 101.464,12.616 C101.346666,12.5946666 101.202668,12.584 101.032,12.584 C100.722665,12.584 100.397335,12.7039988 100.056,12.944 C99.714665,13.1840012 99.4213346,13.6026637 99.176,14.2 L99.176,19 L97.336,19 Z M106.664,19 L106.664,8.536 L109.96,8.536 C110.536003,8.536 111.071998,8.5893328 111.568,8.696 C112.064002,8.8026672 112.493332,8.98399872 112.856,9.24 C113.218668,9.49600128 113.501332,9.82933128 113.704,10.24 C113.906668,10.6506687 114.008,11.159997 114.008,11.768 C114.008,12.3440029 113.906668,12.8453312 113.704,13.272 C113.501332,13.6986688 113.221335,14.0533319 112.864,14.336 C112.506665,14.6186681 112.085336,14.826666 111.6,14.96 C111.114664,15.093334 110.589336,15.16 110.024,15.16 L108.52,15.16 L108.52,19 L106.664,19 Z M108.52,13.672 L109.88,13.672 C111.416008,13.672 112.184,13.0373397 112.184,11.768 C112.184,11.1066634 111.984002,10.6506679 111.584,10.4 C111.183998,10.1493321 110.594671,10.024 109.816,10.024 L108.52,10.024 L108.52,13.672 Z M119.032,19.192 C118.541331,19.192 118.072002,19.1013342 117.624,18.92 C117.175998,18.7386658 116.778668,18.4720018 116.432,18.12 C116.085332,17.7679982 115.810668,17.3360026 115.608,16.824 C115.405332,16.3119974 115.304,15.7306699 115.304,15.08 C115.304,14.4293301 115.405332,13.8480026 115.608,13.336 C115.810668,12.8239974 116.085332,12.3920018 116.432,12.04 C116.778668,11.6879982 117.175998,11.4186676 117.624,11.232 C118.072002,11.0453324 118.541331,10.952 119.032,10.952 C119.522669,10.952 119.994664,11.0453324 120.448,11.232 C120.901336,11.4186676 121.298665,11.6879982 121.64,12.04 C121.981335,12.3920018 122.255999,12.8239974 122.464,13.336 C122.672001,13.8480026 122.776,14.4293301 122.776,15.08 C122.776,15.7306699 122.672001,16.3119974 122.464,16.824 C122.255999,17.3360026 121.981335,17.7679982 121.64,18.12 C121.298665,18.4720018 120.901336,18.7386658 120.448,18.92 C119.994664,19.1013342 119.522669,19.192 119.032,19.192 Z M119.032,17.688 C119.608003,17.688 120.061332,17.450669 120.392,16.976 C120.722668,16.501331 120.888,15.8693373 120.888,15.08 C120.888,14.279996 120.722668,13.642669 120.392,13.168 C120.061332,12.693331 119.608003,12.456 119.032,12.456 C118.455997,12.456 118.005335,12.693331 117.68,13.168 C117.354665,13.642669 117.192,14.279996 117.192,15.08 C117.192,15.8693373 117.354665,16.501331 117.68,16.976 C118.005335,17.450669 118.455997,17.688 119.032,17.688 Z M124.6,19 L124.6,11.144 L126.12,11.144 L126.248,12.536 L126.312,12.536 C126.589335,12.0239974 126.925331,11.6320014 127.32,11.36 C127.714669,11.0879986 128.119998,10.952 128.536,10.952 C128.909335,10.952 129.207999,11.0053328 129.432,11.112 L129.112,12.712 C128.973333,12.6693331 128.845334,12.6373334 128.728,12.616 C128.610666,12.5946666 128.466668,12.584 128.296,12.584 C127.986665,12.584 127.661335,12.7039988 127.32,12.944 C126.978665,13.1840012 126.685335,13.6026637 126.44,14.2 L126.44,19 L124.6,19 Z M133.336,19.192 C132.877331,19.192 132.490668,19.1226674 132.176,18.984 C131.861332,18.8453326 131.605334,18.6506679 131.408,18.4 C131.210666,18.1493321 131.066667,17.8506684 130.976,17.504 C130.885333,17.1573316 130.84,16.7706688 130.84,16.344 L130.84,12.6 L129.72,12.6 L129.72,11.224 L130.936,11.144 L131.16,9 L132.696,9 L132.696,11.144 L134.696,11.144 L134.696,12.6 L132.696,12.6 L132.696,16.344 C132.696,17.2613379 133.063996,17.72 133.8,17.72 C133.938667,17.72 134.079999,17.7040002 134.224,17.672 C134.368001,17.6399998 134.498666,17.5973336 134.616,17.544 L134.936,18.904 C134.722666,18.978667 134.480001,19.045333 134.208,19.104 C133.935999,19.162667 133.645335,19.192 133.336,19.192 Z M138.248,19.192 C137.554663,19.192 136.994669,18.9813354 136.568,18.56 C136.141331,18.1386646 135.928,17.5813368 135.928,16.888 C135.928,16.4719979 136.015999,16.101335 136.192,15.776 C136.368001,15.450665 136.645331,15.1706678 137.024,14.936 C137.402669,14.7013322 137.882664,14.5040008 138.464,14.344 C139.045336,14.1839992 139.741329,14.0613338 140.552,13.976 C140.541333,13.7733323 140.512,13.5786676 140.464,13.392 C140.416,13.2053324 140.336001,13.0400007 140.224,12.896 C140.111999,12.7519993 139.965334,12.6400004 139.784,12.56 C139.602666,12.4799996 139.378668,12.44 139.112,12.44 C138.727998,12.44 138.352002,12.5146659 137.984,12.664 C137.615998,12.8133341 137.256002,12.9946656 136.904,13.208 L136.232,11.976 C136.669336,11.6986653 137.159997,11.4586677 137.704,11.256 C138.248003,11.0533323 138.834664,10.952 139.464,10.952 C140.445338,10.952 141.178664,11.2426638 141.664,11.824 C142.149336,12.4053362 142.392,13.2453278 142.392,14.344 L142.392,19 L140.872,19 L140.744,18.136 L140.68,18.136 C140.327998,18.4346682 139.952002,18.6853323 139.552,18.888 C139.151998,19.0906677 138.717336,19.192 138.248,19.192 Z M138.84,17.752 C139.160002,17.752 139.450665,17.6773341 139.712,17.528 C139.973335,17.3786659 140.253332,17.1653347 140.552,16.888 L140.552,15.128 C140.018664,15.1920003 139.570668,15.2773328 139.208,15.384 C138.845332,15.4906672 138.552001,15.610666 138.328,15.744 C138.103999,15.877334 137.944,16.0293325 137.848,16.2 C137.752,16.3706675 137.704,16.551999 137.704,16.744 C137.704,17.0960018 137.810666,17.3519992 138.024,17.512 C138.237334,17.6720008 138.509332,17.752 138.84,17.752 Z M146.392,19.192 C145.730663,19.192 145.266668,18.9946686 145,18.6 C144.733332,18.2053314 144.6,17.6666701 144.6,16.984 L144.6,7.704 L146.44,7.704 L146.44,17.08 C146.44,17.3040011 146.482666,17.4613329 146.568,17.552 C146.653334,17.6426671 146.744,17.688 146.84,17.688 L146.96,17.688 C146.997334,17.688 147.053333,17.6773334 147.128,17.656 L147.368,19.032 C147.122665,19.1386672 146.797335,19.192 146.392,19.192 Z" id="Customer-Portal" fill="#09101D"></path>
		<path d="M0,2 C0,0.89543 0.89543,0 2,0 L25,0 C26.10455,0 27,0.89543 27,2 L27,25 C27,26.10455 26.10455,27 25,27 L2,27 C0.89543,27 0,26.10455 0,25 L0,2 Z M4,4.5 L4,7.5 C4,7.77615 4.223855,8 4.5,8 L7.5,8 C7.77615,8 8,7.77615 8,7.5 L8,4.5 C8,4.22386 7.77615,4 7.5,4 L4.5,4 C4.223855,4 4,4.22386 4,4.5 Z M9.5,4 C9.22385,4 9,4.22386 9,4.5 L9,7.5 C9,7.77615 9.22385,8 9.5,8 L12.5,8 C12.77615,8 13,7.77615 13,7.5 L13,4.5 C13,4.22386 12.77615,4 12.5,4 L9.5,4 Z M14,4.5 L14,7.5 C14,7.77615 14.22385,8 14.5,8 L17.5,8 C17.77615,8 18,7.77615 18,7.5 L18,4.5 C18,4.22386 17.77615,4 17.5,4 L14.5,4 C14.22385,4 14,4.22386 14,4.5 Z M4.5,9 C4.223855,9 4,9.22385 4,9.5 L4,12.5 C4,12.77615 4.223855,13 4.5,13 L7.5,13 C7.77615,13 8,12.77615 8,12.5 L8,9.5 C8,9.22385 7.77615,9 7.5,9 L4.5,9 Z M9,9.5 L9,12.5 C9,12.77615 9.22385,13 9.5,13 L12.5,13 C12.77615,13 13,12.77615 13,12.5 L13,9.5 C13,9.22385 12.77615,9 12.5,9 L9.5,9 C9.22385,9 9,9.22385 9,9.5 Z M19.5,9 C19.22385,9 19,9.22385 19,9.5 L19,12.5 C19,12.77615 19.22385,13 19.5,13 L22.5,13 C22.77615,13 23,12.77615 23,12.5 L23,9.5 C23,9.22385 22.77615,9 22.5,9 L19.5,9 Z M4,14.5 L4,17.5 C4,17.77615 4.223855,18 4.5,18 L7.5,18 C7.77615,18 8,17.77615 8,17.5 L8,14.5 C8,14.22385 7.77615,14 7.5,14 L4.5,14 C4.223855,14 4,14.22385 4,14.5 Z M14.5,14 C14.22385,14 14,14.22385 14,14.5 L14,17.5 C14,17.77615 14.22385,18 14.5,18 L17.5,18 C17.77615,18 18,17.77615 18,17.5 L18,14.5 C18,14.22385 17.77615,14 17.5,14 L14.5,14 Z M19,14.5 L19,17.5 C19,17.77615 19.22385,18 19.5,18 L22.5,18 C22.77615,18 23,17.77615 23,17.5 L23,14.5 C23,14.22385 22.77615,14 22.5,14 L19.5,14 C19.22385,14 19,14.22385 19,14.5 Z M9.5,19 C9.22385,19 9,19.22385 9,19.5 L9,22.5 C9,22.77615 9.22385,23 9.5,23 L12.5,23 C12.77615,23 13,22.77615 13,22.5 L13,19.5 C13,19.22385 12.77615,19 12.5,19 L9.5,19 Z M14,19.5 L14,22.5 C14,22.77615 14.22385,23 14.5,23 L17.5,23 C17.77615,23 18,22.77615 18,22.5 L18,19.5 C18,19.22385 17.77615,19 17.5,19 L14.5,19 C14.22385,19 14,19.22385 14,19.5 Z M19.5,19 C19.22385,19 19,19.22385 19,19.5 L19,22.5 C19,22.77615 19.22385,23 19.5,23 L22.5,23 C22.77615,23 23,22.77615 23,22.5 L23,19.5 C23,19.22385 22.77615,19 22.5,19 L19.5,19 Z" id="Shape" fill="#0B63CE"></path>
	</g>
</svg>