<svg width="149" height="28" xmlns="http://www.w3.org/2000/svg">
    <g fill="none" fill-rule="evenodd">
        <path d="M40.504 19.192c-.661 0-1.28-.117-1.856-.352a4.116 4.116 0 0 1-1.496-1.04c-.421-.459-.755-1.024-1-1.696-.245-.672-.368-1.44-.368-2.304 0-.853.125-1.619.376-2.296.25-.677.592-1.25 1.024-1.72.432-.47.939-.827 1.52-1.072a4.744 4.744 0 0 1 1.864-.368c.661 0 1.248.133 1.76.4s.933.576 1.264.928l-.992 1.2a3.613 3.613 0 0 0-.896-.664 2.336 2.336 0 0 0-1.088-.248 2.625 2.625 0 0 0-2.104 1.016 3.538 3.538 0 0 0-.608 1.192c-.144.47-.216.997-.216 1.584 0 1.195.259 2.13.776 2.808.517.677 1.219 1.016 2.104 1.016.47 0 .885-.099 1.248-.296.363-.197.693-.456.992-.776l.992 1.168c-.427.49-.915.867-1.464 1.128a4.21 4.21 0 0 1-1.832.392zm7.216 0c-.843 0-1.456-.27-1.84-.808-.384-.539-.576-1.31-.576-2.312v-4.928h1.84v4.688c0 .65.096 1.11.288 1.376.192.267.501.4.928.4.341 0 .643-.085.904-.256.261-.17.541-.448.84-.832v-5.376h1.84V19H50.44l-.144-1.152h-.048c-.341.405-.712.73-1.112.976-.4.245-.872.368-1.416.368zm8.752 0c-.544 0-1.08-.104-1.608-.312a5.203 5.203 0 0 1-1.368-.776l.864-1.184c.352.277.701.493 1.048.648.347.155.723.232 1.128.232.427 0 .741-.088.944-.264a.86.86 0 0 0 .304-.68.669.669 0 0 0-.144-.424 1.383 1.383 0 0 0-.384-.328 3.691 3.691 0 0 0-.544-.264c-.203-.08-.405-.163-.608-.248a9.62 9.62 0 0 1-.784-.336 3.152 3.152 0 0 1-.712-.464 2.34 2.34 0 0 1-.512-.632c-.133-.24-.2-.525-.2-.856 0-.693.256-1.259.768-1.696.512-.437 1.21-.656 2.096-.656.544 0 1.035.096 1.472.288.437.192.816.41 1.136.656l-.848 1.12a4.388 4.388 0 0 0-.84-.488 2.207 2.207 0 0 0-.888-.184c-.395 0-.685.083-.872.248a.79.79 0 0 0-.28.616c0 .16.045.296.136.408.09.112.21.21.36.296.15.085.323.165.52.24.197.075.403.15.616.224.267.096.533.205.8.328.267.123.51.275.728.456.219.181.395.403.528.664s.2.573.2.936a2.199 2.199 0 0 1-.784 1.72 2.844 2.844 0 0 1-.96.52 4.141 4.141 0 0 1-1.312.192zm7.472 0c-.459 0-.845-.07-1.16-.208a1.967 1.967 0 0 1-.768-.584 2.418 2.418 0 0 1-.432-.896 4.586 4.586 0 0 1-.136-1.16V12.6h-1.12v-1.376l1.216-.08L61.768 9h1.536v2.144h2V12.6h-2v3.744c0 .917.368 1.376 1.104 1.376.139 0 .28-.016.424-.048.144-.032.275-.075.392-.128l.32 1.36a6.124 6.124 0 0 1-.728.2 4.13 4.13 0 0 1-.872.088zm6.224 0c-.49 0-.96-.09-1.408-.272a3.503 3.503 0 0 1-1.192-.8 3.827 3.827 0 0 1-.824-1.296c-.203-.512-.304-1.093-.304-1.744 0-.65.101-1.232.304-1.744.203-.512.477-.944.824-1.296a3.625 3.625 0 0 1 2.6-1.088c.49 0 .963.093 1.416.28.453.187.85.456 1.192.808.341.352.616.784.824 1.296.208.512.312 1.093.312 1.744 0 .65-.104 1.232-.312 1.744a3.997 3.997 0 0 1-.824 1.296 3.404 3.404 0 0 1-1.192.8 3.778 3.778 0 0 1-1.416.272zm0-1.504c.576 0 1.03-.237 1.36-.712.33-.475.496-1.107.496-1.896 0-.8-.165-1.437-.496-1.912-.33-.475-.784-.712-1.36-.712a1.55 1.55 0 0 0-1.352.712c-.325.475-.488 1.112-.488 1.912 0 .79.163 1.421.488 1.896a1.55 1.55 0 0 0 1.352.712zM75.736 19v-7.856h1.52l.128 1.072h.064c.33-.352.69-.65 1.08-.896.39-.245.83-.368 1.32-.368.576 0 1.037.123 1.384.368s.61.592.792 1.04a6.32 6.32 0 0 1 1.168-1.008 2.42 2.42 0 0 1 1.36-.4c.832 0 1.445.27 1.84.808.395.539.592 1.31.592 2.312V19h-1.856v-4.688c0-.65-.099-1.11-.296-1.376-.197-.267-.499-.4-.904-.4-.49 0-1.04.325-1.648.976V19h-1.84v-4.688c0-.65-.099-1.11-.296-1.376-.197-.267-.504-.4-.92-.4-.49 0-1.04.325-1.648.976V19h-1.84zm16.848.192c-.544 0-1.05-.093-1.52-.28a3.61 3.61 0 0 1-1.232-.808 3.686 3.686 0 0 1-.824-1.288c-.197-.507-.296-1.085-.296-1.736 0-.64.101-1.216.304-1.728.203-.512.472-.944.808-1.296a3.58 3.58 0 0 1 1.16-.816 3.312 3.312 0 0 1 1.344-.288c.533 0 1.003.09 1.408.272.405.181.744.437 1.016.768.272.33.477.725.616 1.184.139.459.208.96.208 1.504 0 .181-.008.352-.024.512-.016.16-.035.288-.056.384h-4.992c.085.704.333 1.245.744 1.624.41.379.936.568 1.576.568.341 0 .659-.05.952-.152a4.23 4.23 0 0 0 .872-.424l.624 1.152a5.65 5.65 0 0 1-1.248.608 4.34 4.34 0 0 1-1.44.24zm-2.096-4.864h3.488c0-.608-.13-1.085-.392-1.432-.261-.347-.664-.52-1.208-.52-.47 0-.88.165-1.232.496-.352.33-.57.816-.656 1.456zM97.336 19v-7.856h1.52l.128 1.392h.064c.277-.512.613-.904 1.008-1.176.395-.272.8-.408 1.216-.408.373 0 .672.053.896.16l-.32 1.6a3.36 3.36 0 0 0-.384-.096 2.466 2.466 0 0 0-.432-.032c-.31 0-.635.12-.976.36-.341.24-.635.659-.88 1.256V19h-1.84zm9.328 0V8.536h3.296c.576 0 1.112.053 1.608.16.496.107.925.288 1.288.544.363.256.645.59.848 1 .203.41.304.92.304 1.528 0 .576-.101 1.077-.304 1.504a2.948 2.948 0 0 1-.84 1.064 3.51 3.51 0 0 1-1.264.624c-.485.133-1.01.2-1.576.2h-1.504V19h-1.856zm1.856-5.328h1.36c1.536 0 2.304-.635 2.304-1.904 0-.661-.2-1.117-.6-1.368-.4-.25-.99-.376-1.768-.376h-1.296v3.648zm10.512 5.52c-.49 0-.96-.09-1.408-.272a3.503 3.503 0 0 1-1.192-.8 3.827 3.827 0 0 1-.824-1.296c-.203-.512-.304-1.093-.304-1.744 0-.65.101-1.232.304-1.744.203-.512.477-.944.824-1.296a3.625 3.625 0 0 1 2.6-1.088c.49 0 .963.093 1.416.28.453.187.85.456 1.192.808.341.352.616.784.824 1.296.208.512.312 1.093.312 1.744 0 .65-.104 1.232-.312 1.744a3.997 3.997 0 0 1-.824 1.296 3.404 3.404 0 0 1-1.192.8 3.778 3.778 0 0 1-1.416.272zm0-1.504c.576 0 1.03-.237 1.36-.712.33-.475.496-1.107.496-1.896 0-.8-.165-1.437-.496-1.912-.33-.475-.784-.712-1.36-.712a1.55 1.55 0 0 0-1.352.712c-.325.475-.488 1.112-.488 1.912 0 .79.163 1.421.488 1.896a1.55 1.55 0 0 0 1.352.712zM124.6 19v-7.856h1.52l.128 1.392h.064c.277-.512.613-.904 1.008-1.176.395-.272.8-.408 1.216-.408.373 0 .672.053.896.16l-.32 1.6a3.36 3.36 0 0 0-.384-.096 2.466 2.466 0 0 0-.432-.032c-.31 0-.635.12-.976.36-.341.24-.635.659-.88 1.256V19h-1.84zm8.736.192c-.459 0-.845-.07-1.16-.208a1.967 1.967 0 0 1-.768-.584 2.418 2.418 0 0 1-.432-.896 4.586 4.586 0 0 1-.136-1.16V12.6h-1.12v-1.376l1.216-.08L131.16 9h1.536v2.144h2V12.6h-2v3.744c0 .917.368 1.376 1.104 1.376.139 0 .28-.016.424-.048.144-.032.275-.075.392-.128l.32 1.36a6.124 6.124 0 0 1-.728.2 4.13 4.13 0 0 1-.872.088zm4.912 0c-.693 0-1.253-.21-1.68-.632-.427-.421-.64-.979-.64-1.672a2.3 2.3 0 0 1 .264-1.112c.176-.325.453-.605.832-.84.379-.235.859-.432 1.44-.592.581-.16 1.277-.283 2.088-.368a2.965 2.965 0 0 0-.088-.584 1.342 1.342 0 0 0-.24-.496 1.116 1.116 0 0 0-.44-.336 1.665 1.665 0 0 0-.672-.12c-.384 0-.76.075-1.128.224-.368.15-.728.33-1.08.544l-.672-1.232a7.87 7.87 0 0 1 1.472-.72 5.001 5.001 0 0 1 1.76-.304c.981 0 1.715.29 2.2.872.485.581.728 1.421.728 2.52V19h-1.52l-.128-.864h-.064c-.352.299-.728.55-1.128.752-.4.203-.835.304-1.304.304zm.592-1.44c.32 0 .61-.075.872-.224.261-.15.541-.363.84-.64v-1.76c-.533.064-.981.15-1.344.256a3.885 3.885 0 0 0-.88.36c-.224.133-.384.285-.48.456-.096.17-.144.352-.144.544 0 .352.107.608.32.768.213.16.485.24.816.24zm7.552 1.44c-.661 0-1.125-.197-1.392-.592-.267-.395-.4-.933-.4-1.616v-9.28h1.84v9.376c0 .224.043.381.128.472.085.09.176.136.272.136h.12c.037 0 .093-.01.168-.032l.24 1.376c-.245.107-.57.16-.976.16z" fill="#09101D"/>
        <path d="M0 2a2 2 0 0 1 2-2h23a2 2 0 0 1 2 2v23a2 2 0 0 1-2 2H2a2 2 0 0 1-2-2V2zm4 2.5v3a.5.5 0 0 0 .5.5h3a.5.5 0 0 0 .5-.5v-3a.5.5 0 0 0-.5-.5h-3a.5.5 0 0 0-.5.5zM9.5 4a.5.5 0 0 0-.5.5v3a.5.5 0 0 0 .5.5h3a.5.5 0 0 0 .5-.5v-3a.5.5 0 0 0-.5-.5h-3zm4.5.5v3a.5.5 0 0 0 .5.5h3a.5.5 0 0 0 .5-.5v-3a.5.5 0 0 0-.5-.5h-3a.5.5 0 0 0-.5.5zM4.5 9a.5.5 0 0 0-.5.5v3a.5.5 0 0 0 .5.5h3a.5.5 0 0 0 .5-.5v-3a.5.5 0 0 0-.5-.5h-3zm4.5.5v3a.5.5 0 0 0 .5.5h3a.5.5 0 0 0 .5-.5v-3a.5.5 0 0 0-.5-.5h-3a.5.5 0 0 0-.5.5zM19.5 9a.5.5 0 0 0-.5.5v3a.5.5 0 0 0 .5.5h3a.5.5 0 0 0 .5-.5v-3a.5.5 0 0 0-.5-.5h-3zM4 14.5v3a.5.5 0 0 0 .5.5h3a.5.5 0 0 0 .5-.5v-3a.5.5 0 0 0-.5-.5h-3a.5.5 0 0 0-.5.5zm10.5-.5a.5.5 0 0 0-.5.5v3a.5.5 0 0 0 .5.5h3a.5.5 0 0 0 .5-.5v-3a.5.5 0 0 0-.5-.5h-3zm4.5.5v3a.5.5 0 0 0 .5.5h3a.5.5 0 0 0 .5-.5v-3a.5.5 0 0 0-.5-.5h-3a.5.5 0 0 0-.5.5zM9.5 19a.5.5 0 0 0-.5.5v3a.5.5 0 0 0 .5.5h3a.5.5 0 0 0 .5-.5v-3a.5.5 0 0 0-.5-.5h-3zm4.5.5v3a.5.5 0 0 0 .5.5h3a.5.5 0 0 0 .5-.5v-3a.5.5 0 0 0-.5-.5h-3a.5.5 0 0 0-.5.5zm5.5-.5a.5.5 0 0 0-.5.5v3a.5.5 0 0 0 .5.5h3a.5.5 0 0 0 .5-.5v-3a.5.5 0 0 0-.5-.5h-3z" fill="#0B63CE"/>
    </g>
</svg>
