<svg xmlns="http://www.w3.org/2000/svg" width="15" height="15" viewBox="0 0 192 192">
	<g
		fill-rule="nonzero"
		stroke-width="1"
		stroke-linecap="butt"
		stroke-linejoin="miter"
		stroke-miterlimit="10"
		stroke-dashoffset="0"
		style="mix-blend-mode: normal"
	>

		<path d="M0,192v-192h192v192z" fill="none"></path>

		<g fill="#303376">
			<path
				d="M32,16c-8.84,0 -16,7.16 -16,16v104c0,4.416 3.584,8 8,8c4.416,0 8,-3.584 8,
					-8v-104h104c4.416,0 8,-3.584 8,-8c0,-4.416 -3.584,-8 -8,-8zM64,48c-8.84,0 -16,7.16 -16,16v96c0,8.84 7.16,
					16 16,16h96c8.84,0 16,-7.16 16,-16v-96c0,-8.84 -7.16,-16 -16,-16zM64,64h96v96h-96z"
			>
			</path>
		</g>
	</g>
</svg>