<?xml version="1.0" encoding="utf-8"?>
<!-- Generator: Adobe Illustrator 20.0.0, SVG Export Plug-In . SVG Version: 6.00 Build 0)  -->
<svg version="1.1" id="icon-" xmlns="http://www.w3.org/2000/svg" xmlns:xlink="http://www.w3.org/1999/xlink" x="0px" y="0px"
	 viewBox="0 0 1040 1280" enable-background="new 0 0 1040 1280" xml:space="preserve">
<path id="heart-full_1_" d="M520,1120c-60.5,0-117-26.9-155.1-73.8c-0.2-0.3-0.5-0.6-0.7-0.8L70.7,680.6c-0.3-0.4-0.6-0.7-0.9-1.1
	c-22-27.5-39.1-58.2-51-91.3C6.3,553.5,0,517.1,0,480c0-43.2,8.5-85.1,25.2-124.6c16.1-38.1,39.2-72.3,68.5-101.7
	c29.4-29.4,63.6-52.4,101.7-68.5C234.9,168.5,276.8,160,320,160c73.8,0,144,25.3,200,70.1c56-44.9,126.2-70.1,200-70.1
	c43.2,0,85.1,8.5,124.6,25.2c38.1,16.1,72.3,39.2,101.7,68.5c29.4,29.4,52.4,63.6,68.5,101.7c16.7,39.5,25.2,81.4,25.2,124.6
	c0,37.1-6.3,73.5-18.8,108.2c-11.9,33.1-29,63.8-51,91.3c-0.3,0.4-0.6,0.7-0.9,1.1l-293.5,364.8c-0.2,0.3-0.5,0.6-0.7,0.8
	C637,1093.1,580.5,1120,520,1120z"/>
</svg>
