<?xml version="1.0" encoding="utf-8"?>
<!-- Generator: Adobe Illustrator 20.0.0, SVG Export Plug-In . SVG Version: 6.00 Build 0)  -->
<svg version="1.1" id="icon-" xmlns="http://www.w3.org/2000/svg" xmlns:xlink="http://www.w3.org/1999/xlink" x="0px" y="0px"
	 viewBox="0 0 880 1280" enable-background="new 0 0 880 1280" xml:space="preserve">
<path id="house" d="M831.4,423.5C672.1,304.1,671.8,303.8,512.3,184.2C492.2,169,467.2,160,440,160s-52.2,9-72.3,24.2
	C208.2,303.8,207.9,304.1,48.6,423.5C19.1,445.4,0,480.5,0,520c0,240,0,240,0,480c0,66.3,53.7,120,120,120c72.5,0,137.7,0,200,0V800
	h240v320c62.3,0,127.5,0,200,0c66.3,0,120-53.7,120-120c0-240,0-240,0-480C880,480.5,860.9,445.4,831.4,423.5z"/>
</svg>
