<?xml version="1.0"?>
<!-- Generator: Adobe Illustrator 21.0.0, SVG Export Plug-In . SVG Version: 6.00 Build 0) -->

<svg
	id="icon-"
	style="enable-background:new 0 0 1120 1280;"
	version="1.1"
	viewBox="0 0 1120 1280"
	x="0px"
	xml:space="preserve"
	xmlns="http://www.w3.org/2000/svg"
	xmlns:xlink="http://www.w3.org/1999/xlink"
	y="0px"
>
	<path id="info-card_1_" d="M1120,240c0-44.2-35.8-80-80-80H80c-44.2,0-80,35.8-80,80v800c0,44.2,35.8,80,80,80h960
	c44.2,0,80-35.8,80-80V240z M1040,1040H80V240h960V1040z M480,960H160V720h320V960z M160,480c0-88.4,71.6-160,160-160
	s160,71.6,160,160s-71.6,160-160,160S160,568.4,160,480z M960,480H560v-80h400V480z M960,640H560v-80h400V640z M960,800H560v-80h400
	V800z" />
</svg>