<?xml version="1.0" encoding="utf-8"?>
<svg height="27px" viewBox="0 0 27 27" width="27px" xmlns="http://www.w3.org/2000/svg">
<path d="M10.6,3.3C10.6,3.3,10.6,3.3,10.6,3.3L10.6,3.3L10.6,3.3z" style="fill:#909295;" />
<path d="M23.6,17.8L10.4,4.5l0,0C9.7,3.8,8.9,3.4,7.9,3.4C6,3.4,4.5,4.9,4.5,6.8c0,0.9,0.3,1.7,0.9,2.3l0,0l9.5,9.5l1.1-1.1L6.5,8
	C6.2,7.7,6,7.2,6,6.8c0-1,0.8-1.9,1.9-1.9c0.5,0,1.1,0.3,1.4,0.6l13.3,13.4l0,0l0,0c0.7,0.7,1.2,1.7,1.2,2.8c0,2.1-1.7,3.8-3.8,3.8
	c-1,0-1.9-0.4-2.6-1.1l-13.9-14C2.7,9.5,2.1,8.2,2.1,6.8c0-2.9,2.4-5.2,5.2-5.2c1.6,0,3,0.7,3.9,1.8c0,0,12.6,12.7,12.6,12.7
	l1.1-1.1L12.4,2.3C11.2,0.9,9.4,0,7.4,0C3.7,0,0.6,3,0.6,6.8c0,1.9,0.7,3.6,2,4.8l0,0l13.9,14l0,0c0.9,0.9,2.2,1.5,3.7,1.5
	c2.9,0,5.2-2.3,5.2-5.2C25.4,20.2,24.7,18.8,23.6,17.8z" style="fill:#909295;" />
</svg>
