<?xml version="1.0" encoding="utf-8"?>
<svg height="27px" viewBox="0 0 27 27" width="27px" xmlns="http://www.w3.org/2000/svg">
<path d="M26.1,21.8L26.1,21.8l-8.7-8.7l3.5-3.5h2.3l3.8-6.3l-3-3l-6.3,3.8v2.3l-3.5,3.5l-2.4-2.4C12,6.5,12.1,5.6,12,4.7
	c-0.2-1.1-0.6-2-1.4-2.8C9.7,1,8.4,0.5,7,0.5l-0.4,0l-2,2L7.1,5v1.5L6.5,7.1H5L2.5,4.7l-2,2l0,0.3c0,1.4,0.5,2.7,1.4,3.6
	c0.9,0.9,2.2,1.5,3.6,1.5c0.6,0,1.2-0.1,1.9-0.3l1.3,1.3L0,21.8l5.4,5.4l8.7-8.7l7.7,7.6l0,0c0.6,0.6,1.3,0.9,2.1,0.9l0,0
	c0.8,0,1.6-0.3,2.1-0.9c0.6-0.6,0.9-1.3,0.9-2.1C27,23.2,26.7,22.4,26.1,21.8z M5.4,25.1l-3.2-3.2l7.6-7.6l0,0l3.2,3.2l0,0L5.4,25.1
	z M15.2,10.9L19.1,7V5l4.5-2.7L25,3.6l-2.7,4.5h-2L16.3,12l-1.1,1.1l-2.2,2.2L12,14.2l2.2-2.2L15.2,10.9z M7.7,10l-0.5,0.2
	c-0.6,0.2-1.2,0.4-1.7,0.4c-1,0-1.9-0.4-2.5-1C2.4,9,2.1,8.2,2.1,7.3l0.5-0.5l1.8,1.8h2.8l1.5-1.5V4.3L6.8,2.5l0.5-0.5
	c0.9,0.1,1.6,0.4,2.2,1c1.1,1.1,1.3,2.7,0.6,4.3L9.9,7.8l3.1,3.1l-2.2,2.2L7.7,10z M25,25c-0.3,0.3-0.7,0.4-1.1,0.4l0,0
	c-0.4,0-0.8-0.2-1.1-0.4l-8.7-8.7l2.2-2.2l8.7,8.7C25.6,23.5,25.6,24.4,25,25z" style="fill:#909295;" />
</svg>
