<?xml version="1.0" encoding="utf-8"?>
<!-- Generator: Adobe Illustrator 20.0.0, SVG Export Plug-In . SVG Version: 6.00 Build 0)  -->
<svg version="1.1" id="icon-" xmlns="http://www.w3.org/2000/svg" xmlns:xlink="http://www.w3.org/1999/xlink" x="0px" y="0px"
	 viewBox="0 0 720 1440" enable-background="new 0 0 720 1440" xml:space="preserve">
<path id="apps" d="M300,420v180c0,33.1-26.9,60-60,60H60c-33.1,0-60-26.9-60-60V420c0-33.1,26.9-60,60-60h180
	C273.1,360,300,386.9,300,420z M660,360H480c-33.1,0-60,26.9-60,60v180c0,33.1,26.9,60,60,60h180c33.1,0,60-26.9,60-60V420
	C720,386.9,693.1,360,660,360z M240,780H60c-33.1,0-60,26.9-60,60v180c0,33.1,26.9,60,60,60h180c33.1,0,60-26.9,60-60V840
	C300,806.9,273.1,780,240,780z M660,780H480c-33.1,0-60,26.9-60,60v180c0,33.1,26.9,60,60,60h180c33.1,0,60-26.9,60-60V840
	C720,806.9,693.1,780,660,780z"/>
</svg>
