<?xml version="1.0" encoding="utf-8"?>
<!-- Generator: Adobe Illustrator 21.0.0, SVG Export Plug-In . SVG Version: 6.00 Build 0)  -->
<svg version="1.1" id="icon-" xmlns="http://www.w3.org/2000/svg" xmlns:xlink="http://www.w3.org/1999/xlink" x="0px" y="0px"
	 viewBox="0 0 1140 1440" style="enable-background:new 0 0 1140 1440;" xml:space="preserve">
<path id="balloon-comment_1_" d="M539.5,300c48.6,0,95.7,9.5,139.9,28.2c42.8,18.1,81.3,44,114.3,77.1c33.1,33.1,59,71.5,77.1,114.3
	c18.7,44.2,28.2,91.3,28.2,139.9c0,48.1-9.3,94.8-27.7,138.6l-23.1,55.1l38.3,153.3l-153.3-38.3l-55.1,23.1
	c-43.9,18.4-90.5,27.7-138.6,27.7c-48.6,0-95.7-9.5-139.9-28.2c-42.8-18.1-81.3-44-114.3-77.1c-33.1-33.1-59-71.5-77.1-114.3
	c-18.7-44.2-28.2-91.3-28.2-139.9s9.5-95.7,28.2-139.9c18.1-42.8,44-81.3,77.1-114.3c33.1-33.1,71.5-59,114.3-77.1
	C443.8,309.5,490.9,300,539.5,300 M539.5,120C241.5,120,0,361.5,0,659.5S241.5,1199,539.5,1199c73.8,0,144.1-14.8,208.1-41.6
	c0,0,288.7,71.1,297.1,71.1c47.4,0,73.7-36.5,60.1-90.9l-67.5-269.9c26.8-64,41.6-134.4,41.6-208.1C1079,361.5,837.5,120,539.5,120
	L539.5,120z"/>
</svg>
