<?xml version="1.0" encoding="utf-8"?>
<!-- Generator: Adobe Illustrator 21.0.0, SVG Export Plug-In . SVG Version: 6.00 Build 0)  -->
<svg version="1.1" id="icon-" xmlns="http://www.w3.org/2000/svg" xmlns:xlink="http://www.w3.org/1999/xlink" x="0px" y="0px"
	 viewBox="0 0 960 1440" style="enable-background:new 0 0 960 1440;" xml:space="preserve">
<path id="calendar_1_" d="M840,360h-60V240H600v120H360V240H180v120h-60C53.7,360,0,413.7,0,480v600c0,66.3,53.7,120,120,120h720
	c66.3,0,120-53.7,120-120V480C960,413.7,906.3,360,840,360z M840,1080H120V600h720V1080z M780,1020H660V900h120V1020z M780,840H660
	V720h120V840z M600,1020H480V900h120V1020z"/>
</svg>
