<?xml version="1.0"?>
<!-- Generator: Adobe Illustrator 20.0.0, SVG Export Plug-In . SVG Version: 6.00 Build 0) -->

<svg
	enable-background="new 0 0 1080 1440"
	id="icon-"
	version="1.1"
	viewBox="0 0 1080 1440"
	x="0px"
	xml:space="preserve"
	xmlns="http://www.w3.org/2000/svg"
	xmlns:xlink="http://www.w3.org/1999/xlink"
	y="0px"
>
	<path id="cloud" d="M871,1080L871,1080c-294,0-294.5,0-631,0C107.5,1080,0,972.5,0,840c0-115.1,81-211.2,189-234.6
	c-5.9-20.8-9-42.8-9-65.4c0-132.5,107.5-240,240-240c100.8,0,187,62.1,222.6,150.1C674.2,431,711.3,420,751,420
	c116,0,210,94,210,210c0,16.6-1.9,32.7-5.5,48.1C1028.8,710.9,1080,784.5,1080,870C1080,985.6,987,1079.4,871,1080z" />
</svg>