<?xml version="1.0"?>
<!-- Generator: Adobe Illustrator 20.0.0, SVG Export Plug-In . SVG Version: 6.00 Build 0) -->

<svg
	enable-background="new 0 0 300 1440"
	id="icon-"
	version="1.1"
	viewBox="0 0 300 1440"
	x="0px"
	xml:space="preserve"
	xmlns="http://www.w3.org/2000/svg"
	xmlns:xlink="http://www.w3.org/1999/xlink"
	y="0px"
>
	<path id="ellipsis-vertical" d="M300,1110c0,82.8-67.2,150-150,150S0,1192.8,0,1110s67.2-150,150-150S300,1027.2,300,1110z M150,420
	c82.8,0,150-67.2,150-150s-67.2-150-150-150S0,187.2,0,270S67.2,420,150,420z M150,540C67.2,540,0,607.2,0,690s67.2,150,150,150
	s150-67.2,150-150S232.8,540,150,540z" />
</svg>