<?xml version="1.0" encoding="utf-8"?>
<!-- Generator: Adobe Illustrator 21.0.0, SVG Export Plug-In . SVG Version: 6.00 Build 0)  -->
<svg version="1.1" id="icon-" xmlns="http://www.w3.org/2000/svg" xmlns:xlink="http://www.w3.org/1999/xlink" x="0px" y="0px"
	 viewBox="0 0 960 1440" style="enable-background:new 0 0 960 1440;" xml:space="preserve">
<path id="file-js" d="M900,540H720c0-24.1,0-44.5,0-60c0-16.6-6.7-31.6-17.6-42.4c-84.9-84.9-95.1-95.1-180-180
	C511.6,246.7,496.6,240,480,240c-120,0-300,0-420,0c-33.1,0-60,26.9-60,60c0,120,0,720,0,840c0,33.1,26.9,60,60,60
	c120,0,480,0,600,0c33.1,0,60-26.9,60-60c0-27,0-69.3,0-120h180c33.1,0,60-26.9,60-60V600C960,566.9,933.1,540,900,540z M600,1080
	c-128.6,0-351.4,0-480,0c0-167.8,0-552.2,0-720c105.5,0,236,0,335.1,0c63.7,63.7,81.2,81.2,144.9,144.9c0,10.5,0,22.3,0,35.1H240
	c-33.1,0-60,26.9-60,60v360c0,33.1,26.9,60,60,60h360C600,1041.7,600,1061.9,600,1080z M540,690c0,40,0,80,0,120
	c0,49.7-40.3,90-90,90s-90-40.3-90-90c0-16.6,13.4-30,30-30s30,13.4,30,30s13.4,30,30,30s30-13.4,30-30c0-10,0-20,0-30
	c0-30,0-60,0-90c0-16.6,13.4-30,30-30C526.6,660,540,673.4,540,690z M763.4,716.8C763.4,716.8,763.4,716.9,763.4,716.8
	c-0.2,0.1-0.4,0.2-0.5,0.2c-29.9,15-47.1,23.5-65.8,32.9c18.8,9.4,35.9,18,65.8,32.9c0.1,0.1,0.3,0.1,0.4,0.2h0.1l0,0
	c9.8,4.9,16.6,15.1,16.6,26.8s-6.8,21.9-16.6,26.8l0,0h-0.1c-0.1,0.1-0.3,0.1-0.4,0.2c-53.2,26.6-66,33-119.5,59.8l0,0
	c-4,2-8.6,3.2-13.4,3.2c-16.6,0-30-13.4-30-30c0-11.7,6.8-21.9,16.6-26.8l0,0h0.1c0.1-0.1,0.3-0.1,0.4-0.2
	c29.9-15,47.1-23.5,65.8-32.9c-18.8-9.4-35.9-18-65.8-32.9c-0.1-0.1-0.3-0.1-0.4-0.2h-0.1l0,0c-9.8-4.9-16.6-15.1-16.6-26.8
	s6.8-21.9,16.6-26.8l0,0h0.1c0.1-0.1,0.3-0.1,0.4-0.2c53.2-26.6,66-33,119.5-59.8l0,0c4-2,8.6-3.2,13.4-3.2c16.6,0,30,13.4,30,30
	C780,701.7,773.2,711.9,763.4,716.8L763.4,716.8z"/>
</svg>
