<?xml version="1.0" encoding="utf-8"?>
<!-- Generator: Adobe Illustrator 21.0.0, SVG Export Plug-In . SVG Version: 6.00 Build 0)  -->
<svg version="1.1" id="icon-" xmlns="http://www.w3.org/2000/svg" xmlns:xlink="http://www.w3.org/1999/xlink" x="0px" y="0px"
	 viewBox="0 0 960 1440" style="enable-background:new 0 0 960 1440;" xml:space="preserve">
<path id="file-zip_1_" d="M900,540H720c0-24.1,0-44.5,0-60c0-16.6-6.7-31.6-17.6-42.4c-84.9-84.9-95.1-95.1-180-180
	C511.6,246.7,496.6,240,480,240c-120,0-300,0-420,0c-33.1,0-60,26.9-60,60c0,120,0,720,0,840c0,33.1,26.9,60,60,60
	c120,0,480,0,600,0c33.1,0,60-26.9,60-60c0-27,0-69.3,0-120h180c33.1,0,60-26.9,60-60V600C960,566.9,933.1,540,900,540z M600,870
	c0,16.6-13.4,30-30,30s-30-13.4-30-30V690c0-16.6,13.4-30,30-30s30,13.4,30,30V870z M600,540H240c-33.1,0-60,26.9-60,60v360
	c0,33.1,26.9,60,60,60h360c0,21.7,0,41.9,0,60c-128.6,0-351.4,0-480,0c0-167.8,0-552.2,0-720c105.5,0,236,0,335.1,0
	c63.7,63.7,81.2,81.2,144.9,144.9C600,515.4,600,527.2,600,540z M450,840c16.6,0,30,13.4,30,30s-13.4,30-30,30c-60,0-60,0-120,0
	c-16.6,0-30-13.4-30-30c0-6.2,1.9-11.9,5-16.6l0,0l0,0c0-0.1,0.1-0.1,0.1-0.2c24.2-36.2,58.8-88.3,88.8-133.2c-16.4,0-31.3,0-63.9,0
	c-16.6,0-30-13.4-30-30s13.4-30,30-30c60,0,60,0,120,0c16.6,0,30,13.4,30,30c0,6.2-1.9,11.9-5,16.6l0,0l0,0c0,0.1-0.1,0.1-0.1,0.2
	c-24.2,36.2-58.8,88.3-88.8,133.2C402.5,840,417.4,840,450,840z M840,750c0,49.7-40.3,90-90,90h-30v30c0,16.6-13.4,30-30,30
	s-30-13.4-30-30V690c0-16.6,13.4-30,30-30h60C799.7,660,840,700.3,840,750L840,750z M780,750c0,16.6-13.4,30-30,30h-30v-60h30
	C766.6,720,780,733.4,780,750z"/>
</svg>
