<?xml version="1.0" encoding="utf-8"?>
<!-- Generator: Adobe Illustrator 20.0.0, SVG Export Plug-In . SVG Version: 6.00 Build 0)  -->
<svg version="1.1" id="icon-" xmlns="http://www.w3.org/2000/svg" xmlns:xlink="http://www.w3.org/1999/xlink" x="0px" y="0px"
	 viewBox="0 0 960 1440" enable-background="new 0 0 960 1440" xml:space="preserve">
<path id="graph" d="M900,1200H780c-33.1,0-60-26.9-60-60V300c0-33.1,26.9-60,60-60h120c33.1,0,60,26.9,60,60v840
	C960,1173.1,933.1,1200,900,1200z M600,1140V780c0-33.1-26.9-60-60-60H420c-33.1,0-60,26.9-60,60v360c0,33.1,26.9,60,60,60h120
	C573.1,1200,600,1173.1,600,1140z M240,1140V540c0-33.1-26.9-60-60-60H60c-33.1,0-60,26.9-60,60v600c0,33.1,26.9,60,60,60h120
	C213.1,1200,240,1173.1,240,1140z"/>
</svg>
