<?xml version="1.0"?>
<!-- Generator: Adobe Illustrator 20.0.0, SVG Export Plug-In . SVG Version: 6.00 Build 0) -->

<svg
	enable-background="new 0 0 1080 1440"
	id="icon-"
	version="1.1"
	viewBox="0 0 1080 1440"
	x="0px"
	xml:space="preserve"
	xmlns="http://www.w3.org/2000/svg"
	xmlns:xlink="http://www.w3.org/1999/xlink"
	y="0px"
>
	<path id="image_1_" d="M960,240H120C53.7,240,0,293.7,0,360v720c0,66.3,53.7,120,120,120h840c66.3,0,120-53.7,120-120V360
	C1080,293.7,1026.3,240,960,240z M390,420c49.7,0,90,40.3,90,90s-40.3,90-90,90s-90-40.3-90-90S340.3,420,390,420z M180,1020
	l180-240l120,120l180-240l240,360H180z" />
</svg>