<?xml version="1.0"?>
<!-- Generator: Adobe Illustrator 20.0.0, SVG Export Plug-In . SVG Version: 6.00 Build 0) -->

<svg
	enable-background="new 0 0 840 1440"
	id="icon-"
	version="1.1"
	viewBox="0 0 840 1440"
	x="0px"
	xml:space="preserve"
	xmlns="http://www.w3.org/2000/svg"
	xmlns:xlink="http://www.w3.org/1999/xlink"
	y="0px"
>
	<path id="info_1_" d="M420,300C188,300,0,488,0,720s188,420,420,420s420-188,420-420S652,300,420,300z M480,900
	c0,33.1-26.9,60-60,60l0,0c-33.1,0-60-26.9-60-60V720c0-33.1,26.9-60,60-60l0,0c33.1,0,60,26.9,60,60V900z M420,600
	c-33.1,0-60-26.9-60-60s26.9-60,60-60s60,26.9,60,60S453.1,600,420,600z" />
</svg>