<svg id="icon-" xmlns="http://www.w3.org/2000/svg" viewBox="0 0 960 1440"><title>map</title><path id="map" d="M240,420v660a60,60,0,0,1-86.83,53.66h0l-119-59.51-.78-.39-.2-.1h0A60,60,0,0,1,0,1020V360a60,60,0,0,1,86.83-53.66h0l119,59.51.78.39.2.1h0A60,60,0,0,1,240,420Zm686.83-53.66h0l-.2-.1-.78-.39-119-59.51h0A60,60,0,0,0,720,360v660a60,60,0,0,0,33.17,53.66h0l.2.1.78.39,119,59.51h0A60,60,0,0,0,960,1080V420A60,60,0,0,0,926.83,366.34ZM600,300a60,60,0,0,0-14.55,1.79h0l-.83.21L345.69,361.73l-.24.06h0A60,60,0,0,0,300,420v660a60,60,0,0,0,74.55,58.21h0l.83-.21,238.93-59.73.24-.06h0A60,60,0,0,0,660,1020V360A60,60,0,0,0,600,300Z"/></svg>