<?xml version="1.0" encoding="utf-8"?>
<!-- Generator: Adobe Illustrator 20.0.0, SVG Export Plug-In . SVG Version: 6.00 Build 0)  -->
<svg version="1.1" id="icon-" xmlns="http://www.w3.org/2000/svg" xmlns:xlink="http://www.w3.org/1999/xlink" x="0px" y="0px"
	 viewBox="0 0 960 1440" enable-background="new 0 0 960 1440" xml:space="preserve">
<path id="menu_1_" d="M870,480H90c-49.7,0-90-40.3-90-90v0c0-49.7,40.3-90,90-90h780c49.7,0,90,40.3,90,90v0
	C960,439.7,919.7,480,870,480z M960,750L960,750c0-49.7-40.3-90-90-90H90c-49.7,0-90,40.3-90,90v0c0,49.7,40.3,90,90,90h780
	C919.7,840,960,799.7,960,750z M960,1110L960,1110c0-49.7-40.3-90-90-90H90c-49.7,0-90,40.3-90,90v0c0,49.7,40.3,90,90,90h780
	C919.7,1200,960,1159.7,960,1110z"/>
</svg>
