<?xml version="1.0"?>
<!-- Generator: Adobe Illustrator 20.0.0, SVG Export Plug-In . SVG Version: 6.00 Build 0) -->

<svg
	enable-background="new 0 0 720 1440"
	id="icon-"
	version="1.1"
	viewBox="0 0 720 1440"
	x="0px"
	xml:space="preserve"
	xmlns="http://www.w3.org/2000/svg"
	xmlns:xlink="http://www.w3.org/1999/xlink"
	y="0px"
>
	<path id="pause_1_" d="M120,1140L120,1140c-66.3,0-120-53.7-120-120l0-600c0-66.3,53.7-120,120-120h0c66.3,0,120,53.7,120,120v600
	C240,1086.3,186.3,1140,120,1140z M720,1020V420c0-66.3-53.7-120-120-120h0c-66.3,0-120,53.7-120,120v600c0,66.3,53.7,120,120,120h0
	C666.3,1140,720,1086.3,720,1020z" />
</svg>