<?xml version="1.0"?>
<!-- Generator: Adobe Illustrator 20.0.0, SVG Export Plug-In . SVG Version: 6.00 Build 0) -->

<svg
	enable-background="new 0 0 900 1440"
	id="icon-"
	version="1.1"
	viewBox="0 0 900 1440"
	x="0px"
	xml:space="preserve"
	xmlns="http://www.w3.org/2000/svg"
	xmlns:xlink="http://www.w3.org/1999/xlink"
	y="0px"
>
	<path id="plus" d="M809,600c-69.9,0-167,0-270,0c0-103.1,0-200.1,0-270c0-49.7-40.3-90-90-90s-90,40.3-90,90c0,69.9,0,166.9,0,270
	c-103,0-200.1,0-270,0c-49.7,0-90,40.3-90,90s40.3,90,90,90c69.9,0,167,0,270,0c0,103.1,0,200.1,0,270c0,49.7,40.3,90,90,90
	s90-40.3,90-90c0-69.9,0-166.9,0-270c103,0,200.1,0,270,0c49.7,0,90-40.3,90-90S858.7,600,809,600z" />
</svg>