<?xml version="1.0" encoding="utf-8"?>
<!-- Generator: Adobe Illustrator 21.0.0, SVG Export Plug-In . SVG Version: 6.00 Build 0)  -->
<svg version="1.1" id="icon-" xmlns="http://www.w3.org/2000/svg" xmlns:xlink="http://www.w3.org/1999/xlink" x="0px" y="0px"
	 viewBox="0 0 960 1440" style="enable-background:new 0 0 960 1440;" xml:space="preserve">
<path id="streams_1_" d="M120,300v120H0v780h840v-120h120V300H120z M780,1140H60V480h60v600h660V1140z M900,1020H180V360h720V1020z
	 M420,600H240V420h180V600z M420,840H240V660h180V840z M840,480H480v-60h360V480z M840,600H480v-60h360V600z M840,720H480v-60h360
	V720z M840,840H480v-60h360V840z M840,960H240v-60h600V960z"/>
</svg>
