<?xml version="1.0" encoding="utf-8"?>
<!-- Generator: Adobe Illustrator 21.0.0, SVG Export Plug-In . SVG Version: 6.00 Build 0)  -->
<svg version="1.1" id="icon-" xmlns="http://www.w3.org/2000/svg" xmlns:xlink="http://www.w3.org/1999/xlink" x="0px" y="0px"
	 viewBox="0 0 1080 1440" style="enable-background:new 0 0 1080 1440;" xml:space="preserve">
<path id="sun" d="M480,300v-60c0-33.1,26.9-60,60-60l0,0c33.1,0,60,26.9,60,60v60c0,33.1-26.9,60-60,60l0,0
	C506.9,360,480,333.1,480,300z M840,481c16.6,0,31.6-6.7,42.4-17.6c30.5-30.5,30.5-30.5,61-61c10.9-10.9,17.6-25.9,17.6-42.4
	c0-33.1-26.9-60-60-60c-16.6,0-31.6,6.7-42.4,17.6c-30.5,30.5-30.5,30.5-61,61C786.7,389.4,780,404.4,780,421
	C780,454.1,806.9,481,840,481z M1020,660h-60c-33.1,0-60,26.9-60,60l0,0c0,33.1,26.9,60,60,60h60c33.1,0,60-26.9,60-60l0,0
	C1080,686.9,1053.1,660,1020,660z M180,720L180,720c0-33.1-26.9-60-60-60H60c-33.1,0-60,26.9-60,60l0,0c0,33.1,26.9,60,60,60h60
	C153.1,780,180,753.1,180,720z M540,1080L540,1080c-33.1,0-60,26.9-60,60v60c0,33.1,26.9,60,60,60l0,0c33.1,0,60-26.9,60-60v-60
	C600,1106.9,573.1,1080,540,1080z M240,961c-16.6,0-31.6,6.7-42.4,17.6c-30,30-30,30-60,60c-10.9,10.9-17.6,25.9-17.6,42.4
	c0,33.1,26.9,60,60,60c16.6,0,31.6-6.7,42.4-17.6c30-30,30-30,60-60c10.9-10.9,17.6-25.9,17.6-42.4C300,987.9,273.1,961,240,961z
	 M197.6,462.4c10.9,10.9,25.9,17.6,42.4,17.6c33.1,0,60-26.9,60-60c0-16.6-6.7-31.6-17.6-42.4c-30-30-30-30-60-60
	C211.6,306.7,196.6,300,180,300c-33.1,0-60,26.9-60,60c0,16.6,6.7,31.6,17.6,42.4C167.6,432.4,167.6,432.4,197.6,462.4z
	 M883.4,978.6C872.6,967.7,857.6,961,841,961c-33.1,0-60,26.9-60,60c0,16.6,6.7,31.6,17.6,42.4c30,30,30,30,60,60
	c10.9,10.9,25.9,17.6,42.4,17.6c33.1,0,60-26.9,60-60c0-16.6-6.7-31.6-17.6-42.4C913.4,1008.6,913.4,1008.6,883.4,978.6z M780,720
	c0,132.5-107.5,240-240,240S300,852.5,300,720s107.5-240,240-240S780,587.5,780,720z M660,720c0-66.3-53.7-120-120-120
	s-120,53.7-120,120s53.7,120,120,120S660,786.3,660,720z"/>
</svg>
