<svg
   viewBox="0 0 2133.3333 2666.6667"
   height="500"
   xml:space="preserve"
   xmlns="http://www.w3.org/2000/svg"
   version="1.1"><metadata
     id="metadata8"></metadata><defs
     id="defs6"><clipPath
       id="clipPath26"
       clipPathUnits="userSpaceOnUse"><path
         id="path24"
         d="M 0,2000 H 1600 V 0 H 0 Z" /></clipPath><clipPath
       id="clipPath38"
       clipPathUnits="userSpaceOnUse"><path
         id="path36"
         d="m 249.147,560.764 h 58.548 v -140.02 h -58.548 z" /></clipPath><clipPath
       id="clipPath58"
       clipPathUnits="userSpaceOnUse"><path
         id="path56"
         d="m 804.299,793.67 h 57.41 V 538.502 h -57.41 z" /></clipPath><clipPath
       id="clipPath74"
       clipPathUnits="userSpaceOnUse"><path
         id="path72"
         d="m 269.382,796.147 h 67.799 V 513.902 h -67.799 z" /></clipPath><clipPath
       id="clipPath94"
       clipPathUnits="userSpaceOnUse"><path
         id="path92"
         d="M 711.805,986.904 H 856.73 V 792.842 H 711.805 Z" /></clipPath><clipPath
       id="clipPath114"
       clipPathUnits="userSpaceOnUse"><path
         id="path112"
         d="M 568.118,555.927 H 725.624 V 126.373 H 568.118 Z" /></clipPath><clipPath
       id="clipPath130"
       clipPathUnits="userSpaceOnUse"><path
         id="path128"
         d="M 268.905,962.958 H 456.589 V 121.031 H 268.905 Z" /></clipPath><clipPath
       id="clipPath282"
       clipPathUnits="userSpaceOnUse"><path
         id="path280"
         d="M 493.818,1831.5 H 664.347 V 1548.06 H 493.818 Z" /></clipPath><clipPath
       id="clipPath298"
       clipPathUnits="userSpaceOnUse"><path
         id="path296"
         d="M 131.205,1802.34 H 580.117 V 1038.29 H 131.205 Z" /></clipPath></defs><g
     transform="matrix(1.3333333,0,0,-1.3333333,0,2666.6667)"
     id="g10"><g
       transform="translate(397.126,176.9038)"
       id="g12"><path
         id="path14"
         style="fill:#ffffff;fill-opacity:1;fill-rule:nonzero;stroke:none"
         d="M 0,0 64.469,4.298 60.171,-53.007 -41.546,-54.44 Z" /></g><g
       transform="translate(775.3423,168.3081)"
       id="g16"><path
         id="path18"
         style="fill:#ffffff;fill-opacity:1;fill-rule:nonzero;stroke:none"
         d="m 0,0 -68.767,2.865 -2.865,-50.142 h 91.69 z" /></g><g
       id="g20"><g
         clip-path="url(#clipPath26)"
         id="g22"><g
           transform="translate(295.7563,634.085)"
           id="g28"><path
             id="path30"
             style="fill:#8bc53f;fill-opacity:1;fill-rule:nonzero;stroke:none"
             d="m 0,0 c 0,0 40.482,-40.314 41.875,-116.789 l -20.156,-4.867 c 0,0 -13.907,53.529 -27.116,41.016 -13.209,-12.512 -9.04,-72.298 16.684,-109.841 l -6.968,-7.316 2.797,-7.979 -15.295,-9.038 -13.166,15.266 -9.078,-2.749 c 0,0 -39.953,70.142 -38.878,193.701 z" /></g><g
           id="g32"><g
             id="g34" /><g
             id="g46"><g
               style="opacity:0.19999701"
               id="g44"
               clip-path="url(#clipPath38)"><g
                 id="g42"
                 transform="translate(260.5176,440.9165)"><path
                   id="path40"
                   style="fill:#6d6e70;fill-opacity:1;fill-rule:nonzero;stroke:none"
                   d="m 0,0 2.55,3.058 c 0,0 -13.044,28.945 -13.921,46.732 0,0 8.565,-33.218 30.75,-60.247 l 2.807,5.101 c 0,0 -15.276,32.181 -14.782,44.142 l 18.861,-39.294 4.848,7.393 c 0,0 -30.861,90.777 -1.534,112.962 0,0 -10.959,-19.117 -6.121,-53.8 C 28.307,31.363 47.177,3.571 47.177,3.571 l -10.713,-7.142 4.848,-8.922 -14.704,-7.679 -13.166,15.266 -8.09,-3.252 z" /></g></g></g></g><g
           transform="translate(913.5928,613.1421)"
           id="g48"><path
             id="path50"
             style="fill:#8bc53f;fill-opacity:1;fill-rule:nonzero;stroke:none"
             d="m 0,0 -9.508,-127.783 -38.399,2.477 -5.573,5.574 -38.4,3.717 -22.297,24.153 16.723,22.297 c 0,0 -21.058,26.012 5.574,36.541 0,0 4.442,16.287 7.675,41.74 z" /></g><g
           id="g52"><g
             id="g54" /><g
             id="g66"><g
               id="g64"
               clip-path="url(#clipPath58)"><g
                 id="g62"
                 transform="translate(856.7305,793.6699)"><path
                   id="path60"
                   style="fill:#d0d2d3;fill-opacity:1;fill-rule:nonzero;stroke:none"
                   d="m 0,0 c 4.955,-9.91 11.148,-104.05 -8.671,-208.098 0,0 -34.683,-19.819 -21.058,-47.07 l -10.527,4.335 c 0,0 -16.723,29.108 5.573,36.541 0,0 35.099,139.555 -17.748,213.464 z" /></g></g></g></g><g
           id="g68"><g
             id="g70" /><g
             id="g82"><g
               id="g80"
               clip-path="url(#clipPath74)"><g
                 id="g78"
                 transform="translate(279.0981,796.1475)"><path
                   id="path76"
                   style="fill:#d0d2d3;fill-opacity:1;fill-rule:nonzero;stroke:none"
                   d="m 0,0 c -14.041,-85.058 -11.564,-147.819 -0.833,-187.457 0,0 38.816,-19.819 42.116,-79.276 l -8.255,-3.3 4.898,-12.212 20.157,4.867 c 0,0 -3.581,91.575 -43.799,112.624 L 34.683,-1.655 Z" /></g></g></g></g><g
           transform="translate(225.2095,626.0361)"
           id="g84"><path
             id="path86"
             style="fill:#4c4c4c;fill-opacity:1;fill-rule:nonzero;stroke:none"
             d="m 0,0 c 0,0 6.939,176.875 7.339,181.282 3.069,33.893 22.628,184.848 130.781,249.16 0,0 74.547,-13.984 167.008,-13.833 51.856,0.082 120.806,5.022 157.526,18.371 0,0 141.21,-77.204 197.361,-266.311 0,0 33.824,-147.158 30.6,-184.769 -29.014,3.224 -82.743,13.971 -82.743,13.971 0,0 17.193,176.231 -87.416,247.592 L 561.666,-45.114 413.614,23.659 342.69,-60.158 194.158,-1.056 150.506,289.233 c 0,0 -19.42,-20.614 -45.207,-80.785 C 79.511,148.278 69.483,5.73 69.483,5.73 Z" /></g><g
           id="g88"><g
             id="g90" /><g
             id="g102"><g
               id="g100"
               clip-path="url(#clipPath94)"><g
                 id="g98"
                 transform="translate(711.8047,986.9043)"><path
                   id="path96"
                   style="fill:#d0d2d3;fill-opacity:1;fill-rule:nonzero;stroke:none"
                   d="m 0,0 c 0,0 120.152,-94.14 144.926,-193.234 l -52.431,-0.828 c 0,0 -23.535,68.544 -58.634,78.657 z" /></g></g></g></g><g
           transform="translate(415.3535,680.5381)"
           id="g104"><path
             id="path106"
             style="fill:#4c4c4c;fill-opacity:1;fill-rule:nonzero;stroke:none"
             d="m 0,0 c 0,0 288.196,-57.806 353.431,-2.477 0,0 34.688,-257.641 20.651,-343.526 l -14.382,-167.328 -69.847,6.448 c 0,0 -0.875,167.414 -1.145,173.061 -1.815,37.911 -13.937,184.596 -92.997,191.786 -77.603,7.056 -107.59,-146.798 -114.681,-191.787 -1.21,-7.674 -32.959,-170.911 -32.959,-170.911 l -66.625,-1.075 19.346,173.003 z" /></g><g
           id="g108"><g
             id="g110" /><g
             id="g122"><g
               id="g120"
               clip-path="url(#clipPath114)"><g
                 id="g118"
                 transform="translate(568.1177,528.5918)"><path
                   id="path116"
                   style="fill:#d0d2d3;fill-opacity:1;fill-rule:nonzero;stroke:none"
                   d="m 0,0 c 37.161,42.116 101.571,37.161 136.255,-26.012 0,0 -17.341,19.819 -29.729,21.057 0,0 37.875,-18.937 49.992,-174.817 0.279,-3.588 0.737,-216.562 0.988,-220.297 l -20.417,-2.15 c 0,0 -0.928,213.889 -1.207,218.2 C 133.677,-149.981 119.91,1.518 49.547,3.716 21.058,2.478 3.716,-18.58 3.716,-18.58 Z" /></g></g></g></g><g
           id="g124"><g
             id="g126" /><g
             id="g138"><g
               id="g136"
               clip-path="url(#clipPath130)"><g
                 id="g134"
                 transform="translate(268.9048,630.3335)"><path
                   id="path132"
                   style="fill:#d0d2d3;fill-opacity:1;fill-rule:nonzero;stroke:none"
                   d="m 0,0 c 0,0 7.529,136.223 19.34,174.066 11.813,37.842 41.719,137.669 93.248,158.559 0,0 112.889,-124.344 61.847,-614.023 -0.205,-1.962 -18.665,-124.51 -24.447,-163.289 -1.041,-6.984 -14.567,-64.259 -14.603,-64.615 l -48.71,1.432 c 0,0 42.058,57.357 42.914,64.662 4.379,37.354 17.77,151.974 17.852,157.387 1.062,69.615 5.246,482.34 -43.108,563.944 0,0 -42.937,-37.568 -56.157,-113.751 0,0 -23.822,-126.407 -23.822,-161.507 C 12.894,2.149 0,0 0,0" /></g></g></g></g><g
           transform="translate(700.6074,1009.0361)"
           id="g140"><path
             id="path142"
             style="fill:#30302f;fill-opacity:1;fill-rule:nonzero;stroke:none"
             d="m 0,0 c 0,0 93.978,-333.571 84.158,-667.793 -0.092,-3.133 -13.899,-170.903 -14.01,-174.036 l 8.597,-5.372 c 0,0 16.906,169.166 16.962,178.379 0.466,75.764 -1.162,435.677 -70.807,629.721 C 11.197,-13.461 0,0 0,0" /></g><g
           transform="translate(376.4702,944.1265)"
           id="g144"><path
             id="path146"
             style="fill:#30302f;fill-opacity:1;fill-rule:nonzero;stroke:none"
             d="m 0,0 c 0,0 72.094,-223.93 46.422,-610.237 -0.17,-2.558 -0.343,-5.123 -20.94,-159.213 l -13.749,1.127 c 0,0 10.746,116.056 13.461,164.345 3.996,71.027 15.96,467.766 -37.184,568.869 z" /></g><g
           transform="translate(461.5425,113.624)"
           id="g148"><path
             id="path150"
             style="fill:#30302f;fill-opacity:1;fill-rule:nonzero;stroke:none"
             d="M 0,0 C 0,0 52.838,430.558 161.464,413.168 270.09,395.788 232.224,0 232.224,0 h 13.151 c 0,0 31.384,406.897 -83.205,431.477 C 47.583,456.067 6.271,126.093 -10.577,12.309 Z" /></g><g
           transform="translate(780.9316,168.5488)"
           id="g152"><path
             id="path154"
             style="fill:#30302f;fill-opacity:1;fill-rule:nonzero;stroke:none"
             d="M 0,0 26.506,-54.569 H -86.205 l 3.542,22.548 86.679,-6.639 -22.334,39.367 z" /></g><g
           transform="translate(391.4272,184.4009)"
           id="g156"><path
             id="path158"
             style="fill:#30302f;fill-opacity:1;fill-rule:nonzero;stroke:none"
             d="M 0,0 -56.887,-70.777 H 70.494 l 1.355,16.325 -96.559,0.049 35.235,44.678 z" /></g><g
           transform="translate(348.6968,1061.0947)"
           id="g160"><path
             id="path162"
             style="fill:#30302f;fill-opacity:1;fill-rule:nonzero;stroke:none"
             d="m 0,0 c -88.508,-69.729 -118.343,-176.73 -127.091,-260.365 1.616,-0.131 14.233,-7.55 15.782,-7.792 C -84.862,-61.529 24.929,-5.865 24.929,-5.865 Z" /></g><g
           transform="translate(290.8086,626.4766)"
           id="g164"><path
             id="path166"
             style="fill:#30302f;fill-opacity:1;fill-rule:nonzero;stroke:none"
             d="m 0,0 c 0,0 44.534,-28.818 42.124,-105.056 l -16.016,-3.299 0.377,-8.855 25.732,7.906 c 0,0 -4.674,95.214 -45.861,118.963 z" /></g><g
           transform="translate(316.9165,518.1216)"
           id="g168"><path
             id="path170"
             style="fill:#30302f;fill-opacity:1;fill-rule:nonzero;stroke:none"
             d="m 0,0 c 0,0 -6.222,23.186 -18.387,38.825 -12.144,15.628 -24.192,-14.507 -14.99,-62.709 7.394,-38.708 20.594,-50.737 20.594,-50.737 l -12.396,-5.739 2.244,-4.538 20.003,10.886 c 0,0 -19.364,15.175 -26.05,51.155 -6.678,35.96 0.464,70.972 11.002,53.862 C -7.442,13.886 0.377,-8.855 0.377,-8.855 Z" /></g><g
           transform="translate(291.7373,437.7612)"
           id="g172"><path
             id="path174"
             style="fill:#30302f;fill-opacity:1;fill-rule:nonzero;stroke:none"
             d="m 0,0 c 0,0 -13.472,17.681 -23.815,41.941 0,0 6.908,-25.731 21.744,-49.334 l 7.703,4.519 z" /></g><g
           transform="translate(299.624,437.7612)"
           id="g176"><path
             id="path178"
             style="fill:#30302f;fill-opacity:1;fill-rule:nonzero;stroke:none"
             d="m 0,0 7.045,-8.83 -19.791,-11.211 c 0,0 -32.553,36.29 -37.731,72.986 0,0 10.8,-40.18 38.012,-66.716 l 11.866,5.894 -3.63,5.081 z" /></g><g
           transform="translate(228.4961,555.8716)"
           id="g180"><path
             id="path182"
             style="fill:#30302f;fill-opacity:1;fill-rule:nonzero;stroke:none"
             d="m 0,0 c 3.775,-32.08 15.667,-97.788 36.425,-125.009 l 9.039,5.148 -2.1,2.758 -6.281,-3.049 c 0,0 -22.558,28.258 -35.505,132.82 z" /></g><g
           transform="translate(298.1431,632.1382)"
           id="g184"><path
             id="path186"
             style="fill:#30302f;fill-opacity:1;fill-rule:nonzero;stroke:none"
             d="m 0,0 c 0,0 7.684,212.623 80.911,275.021 l -2.584,36.967 c 0,0 -90.617,-128.92 -85.661,-317.65 z" /></g><g
           transform="translate(818.9512,580.6167)"
           id="g188"><path
             id="path190"
             style="fill:#30302f;fill-opacity:1;fill-rule:nonzero;stroke:none"
             d="M 0,0 C 0.899,0.165 8.37,-3.852 9.291,-3.716 13.926,16.993 19.15,76.962 17.408,119.958 2.835,260.414 -73.74,302.276 -73.74,302.276 l 1.528,-14.781 C -1.346,215.598 28.286,132.95 0,0" /></g><g
           transform="translate(890.8623,794.2456)"
           id="g192"><path
             id="path194"
             style="fill:#30302f;fill-opacity:1;fill-rule:nonzero;stroke:none"
             d="m 0,0 c -57.821,199.757 -195.208,268.175 -195.208,268.175 l -13.007,-3.717 C -79.614,175.583 -28.674,47.39 -13.51,0 Z" /></g><g
           transform="translate(908.3018,607.7876)"
           id="g196"><path
             id="path198"
             style="fill:#30302f;fill-opacity:1;fill-rule:nonzero;stroke:none"
             d="M 0,0 -8.217,-118.833 H -42.9 l -0.62,6.812 -10.528,-0.619 -28.489,3.716 -23.536,21.058 17.341,17.341 c 0,0 -8.67,22.296 -4.955,29.729 3.717,7.432 13.627,9.909 13.627,9.909 l -6.194,7.432 c 0,0 -14.864,-1.238 -18.58,-14.864 -1.66,-6.092 7.432,-27.251 7.432,-27.251 l -17.341,-21.058 27.251,-27.251 40.925,-5.85 0.57,-5.298 45.212,-1.239 L 9.672,1.075 Z" /></g><g
           transform="translate(893.2725,537.2627)"
           id="g200"><path
             id="path202"
             style="fill:#30302f;fill-opacity:1;fill-rule:nonzero;stroke:none"
             d="m 0,0 -20.439,-22.296 -39.019,-1.239 -6.813,24.774 23.536,1.238 18.581,18.58 2.477,-3.716 -14.865,-21.057 -22.296,-0.62 4.335,-15.483 30.967,2.478 16.103,19.818 z" /></g><g
           transform="translate(850.5371,539.7397)"
           id="g204"><path
             id="path206"
             style="fill:#30302f;fill-opacity:1;fill-rule:nonzero;stroke:none"
             d="m 0,0 c 0,0 -16.103,14.245 -0.619,32.206 0,0 -19.818,-11.767 -5.574,-33.444 z" /></g><g
           transform="translate(819.5693,537.2627)"
           id="g208"><path
             id="path210"
             style="fill:#30302f;fill-opacity:1;fill-rule:nonzero;stroke:none"
             d="M 0,0 9.91,-3.097 10.53,0 -3.095,5.574 Z" /></g><g
           transform="translate(815.854,505.6763)"
           id="g212"><path
             id="path214"
             style="fill:#30302f;fill-opacity:1;fill-rule:nonzero;stroke:none"
             d="M 0,0 16.103,22.916 17.341,17.961 4.956,-5.574 Z" /></g><g
           transform="translate(866.0205,487.0957)"
           id="g216"><path
             id="path218"
             style="fill:#30302f;fill-opacity:1;fill-rule:nonzero;stroke:none"
             d="M 0,0 V 29.109 L -5.574,28.49 V 5.574 Z" /></g><g
           transform="translate(838.1494,495.7666)"
           id="g220"><path
             id="path222"
             style="fill:#30302f;fill-opacity:1;fill-rule:nonzero;stroke:none"
             d="M 0,0 5.575,19.819 H 10.53 L 4.337,-0.619 Z" /></g><g
           transform="translate(518.8999,1046.5146)"
           id="g224"><path
             id="path226"
             style="fill:#ffffff;fill-opacity:1;fill-rule:nonzero;stroke:none"
             d="M 0,0 100.285,-196.271 124.64,12.894 Z" /></g><g
           transform="translate(406.4727,636.8003)"
           id="g228"><path
             id="path230"
             style="fill:#30302f;fill-opacity:1;fill-rule:nonzero;stroke:none"
             d="m 0,0 165.621,-48.356 66.249,84.892 98.369,-81.668 43.717,47.281 V -26.865 L 332.247,-64.475 231.87,22.566 168.633,-64.475 3.011,-19.342 Z" /></g><g
           transform="translate(666.522,1054.8145)"
           id="g232"><path
             id="path234"
             style="fill:#30302f;fill-opacity:1;fill-rule:nonzero;stroke:none"
             d="M 0,0 22.565,-32.238 3.224,-62.326 30.088,-105.31 -33.313,-309.48 -47.337,-204.571 -24.716,-7.522 Z" /></g><g
           transform="translate(481.6929,1044.0684)"
           id="g236"><path
             id="path238"
             style="fill:#30302f;fill-opacity:1;fill-rule:nonzero;stroke:none"
             d="M 0,0 -38.685,-48.356 9.672,-71.997 -15.044,-119.279 151.517,-294.437 137.492,-193.825 37.611,-2.149 Z" /></g><g
           transform="translate(624.6128,770.0488)"
           id="g240"><path
             id="path242"
             style="fill:#30302f;fill-opacity:1;fill-rule:nonzero;stroke:none"
             d="m 0,0 13.729,-110.682 6.688,1.075 L 9.672,-3.224 Z" /></g><g
           transform="translate(704.1318,170.4307)"
           id="g244"><path
             id="path246"
             style="fill:#30302f;fill-opacity:1;fill-rule:nonzero;stroke:none"
             d="M 0,0 75.22,-8.596 74.146,2.15 0,9.672 Z" /></g><g
           transform="translate(396.7998,174.729)"
           id="g248"><path
             id="path250"
             style="fill:#30302f;fill-opacity:1;fill-rule:nonzero;stroke:none"
             d="m 0,0 66.625,1.075 4.298,10.746 H 1.075 Z" /></g><g
           transform="translate(828.7832,628.2046)"
           id="g252"><path
             id="path254"
             style="fill:#30302f;fill-opacity:1;fill-rule:nonzero;stroke:none"
             d="m 0,0 81.669,-5.373 c 0,0 2.148,59.102 -34.387,177.307 l 14.797,-5.893 c 0,0 26.036,-121.983 28.187,-191.831 l -92.415,13.97 z" /></g><g
           transform="translate(238.834,805.5112)"
           id="g256"><path
             id="path258"
             style="fill:#30302f;fill-opacity:1;fill-rule:nonzero;stroke:none"
             d="m 0,0 c -2.843,-31.092 -18.268,-161.187 -5.373,-268.646 l -4.965,19.006 c 0,0 -15.487,133.101 -6.89,244.858 z" /></g><g
           transform="translate(225.9258,628.9014)"
           id="g260"><path
             id="path262"
             style="fill:#30302f;fill-opacity:1;fill-rule:nonzero;stroke:none"
             d="M 0,0 71.239,7.234 68.767,2.865 0.717,-6.447 Z" /></g><g
           transform="translate(561.1631,1042.2168)"
           id="g264"><path
             id="path266"
             style="fill:#4a586d;fill-opacity:1;fill-rule:nonzero;stroke:none"
             d="m 0,0 29.474,-27.806 8.49,-8.01 18.625,41.546 z" /></g><g
           transform="translate(589.8159,907.0718)"
           id="g268"><path
             id="path270"
             style="fill:#4a586d;fill-opacity:1;fill-rule:nonzero;stroke:none"
             d="M 0,0 29.369,-56.828 36.771,7.641 13.61,114.372 2.48,111.119 Z" /></g><g
           transform="translate(555.3423,1039.7798)"
           id="g272"><path
             id="path274"
             style="fill:#8bc53f;fill-opacity:1;fill-rule:nonzero;stroke:none"
             d="m 0,0 c -53.872,1.49 -385.229,-26.632 -426.106,273.749 -3.716,204.382 243.817,253.93 285.724,257.646 -7.02,23.534 -33.444,103.226 -116.025,148.642 0,0 -45.003,-46.248 -81.753,11.97 -14.864,28.078 7.022,78.865 63.173,66.894 37.577,-10.326 30.261,-56.292 30.261,-56.292 0,0 75.854,-13.902 192.291,-162.132 0,0 97.028,-6.605 126.346,-18.992 0,0 -10.737,88.774 -85.881,187.041 0,0 -47.486,-6.189 -49.548,45.42 -2.061,51.614 77.622,51.202 82.992,6.61 1.239,-7.021 -0.411,-30.551 -8.255,-38.399 0,0 97.025,-87.124 129.647,-221.313 0,0 181.67,-97.033 181.263,-236.589 C 323.713,118.918 220.806,46.572 109.576,12.343 74.322,2.888 14.865,-0.411 0,0" /></g><g
           id="g276"><g
             id="g278" /><g
             id="g290"><g
               id="g288"
               clip-path="url(#clipPath282)"><g
                 id="g286"
                 transform="translate(554.9414,1756.5117)"><path
                   id="path284"
                   style="fill:#e6e7e8;fill-opacity:1;fill-rule:nonzero;stroke:none"
                   d="m 0,0 c -0.992,-0.076 -1.988,-0.154 -3.005,-0.154 -21.377,0 -38.709,17.327 -38.709,38.709 0,16.678 10.573,30.855 25.365,36.294 -21.765,1.548 -45.213,-10.055 -44.768,-37.635 3.203,-51.812 49.548,-45.42 49.548,-45.42 66.375,-80.509 86.292,-191.173 86.292,-191.173 16.519,-4.127 34.683,-9.077 34.683,-9.077 C 86.417,-91.923 5.947,-6.647 0,0" /></g></g></g></g><g
           id="g292"><g
             id="g294" /><g
             id="g306"><g
               id="g304"
               clip-path="url(#clipPath298)"><g
                 id="g302"
                 transform="translate(256.4141,1382.8945)"><path
                   id="path300"
                   style="fill:#e6e7e8;fill-opacity:1;fill-rule:nonzero;stroke:none"
                   d="M 0,0 C 26.424,156.901 204.789,173.416 204.789,173.416 182.604,265.224 57.729,339.97 39.468,350.47 33.88,346.623 27.115,344.354 19.82,344.354 c -19.161,0 -34.684,15.532 -34.684,34.683 0,19.156 15.523,34.688 34.684,34.688 3.202,0 6.299,-0.475 9.245,-1.287 -8.908,5.501 -23.772,11.017 -41.452,2.932 -40.466,-17.342 -40.469,-66.884 -8.264,-88.357 32.206,-21.474 63.172,9.909 63.172,9.909 C 139.555,277.465 161.436,190.757 161.436,190.757 142.855,187.042 74.108,182.706 -42.948,97.44 -195.769,-13.877 -110.658,-224.617 9.91,-290.679 130.474,-356.745 323.703,-343.526 323.703,-343.526 42.938,-322.057 -26.429,-156.901 0,0" /></g></g></g></g><g
           transform="translate(825.792,1443.5903)"
           id="g308"><path
             id="path310"
             style="fill:#ffffff;fill-opacity:1;fill-rule:nonzero;stroke:none"
             d="m 0,0 c -9.267,-0.663 -113.156,-19.867 -103.226,-141.21 8.67,-105.907 164.124,-36.541 154.834,17.961 C 44.302,-80.378 8.671,0.62 0,0" /></g><g
           transform="translate(388.1211,1486.1167)"
           id="g312"><path
             id="path314"
             style="fill:#ffffff;fill-opacity:1;fill-rule:nonzero;stroke:none"
             d="M 0,0 C 21.977,-0.295 106.115,-19.819 139.56,-123.868 173.004,-227.918 78.037,-253.519 37.987,-245.259 -2.062,-237 -87.947,-198.184 -95.791,-114.37 -103.633,-30.556 -30.55,0.411 0,0" /></g><g
           transform="translate(427.9619,1572.21)"
           id="g316"><path
             id="path318"
             style="fill:#30302f;fill-opacity:1;fill-rule:nonzero;stroke:none"
             d="m 0,0 c -67.828,0.779 -302.636,-96.544 -283.91,-276.98 18.725,-180.442 213.682,-251.396 304.977,-252.339 0,0 -200.086,-5.139 -287.779,136.875 -87.696,142.017 -11.121,282.84 82.013,339.403 C -94.285,1.868 0,0 0,0" /></g><g
           transform="translate(702.1953,1540.749)"
           id="g320"><path
             id="path322"
             style="fill:#30302f;fill-opacity:1;fill-rule:nonzero;stroke:none"
             d="m 0,0 c 0,0 -1.061,-6.701 9.638,-12.517 99.51,-54.091 167.008,-139.768 162.528,-240.581 -5.468,-123.026 -115.942,-207.586 -209.443,-235.528 0,0 221.104,25.393 223.669,223.979 C 188.772,-80.65 47.292,-28.963 0,0" /></g><g
           transform="translate(373.8267,1290.4194)"
           id="g324"><path
             id="path326"
             style="fill:#30302f;fill-opacity:1;fill-rule:nonzero;stroke:none"
             d="M 0,0 C -16.092,29.593 -35.892,109.71 -4.566,119.373 17.584,126.21 28.955,77.156 32.352,39.831 35.4,6.28 16.095,-29.598 0,0 m -3.599,135.109 c -25.238,-7.835 -26.38,-47.032 -23.167,-77.965 3.212,-30.938 19.673,-89.146 59.138,-92.872 35.263,-1.268 38.031,43.76 29.041,96.811 -6.271,36.996 -35.303,83.233 -65.012,74.026" /></g><g
           transform="translate(827.8535,1432.8584)"
           id="g328"><path
             id="path330"
             style="fill:#30302f;fill-opacity:1;fill-rule:nonzero;stroke:none"
             d="m 0,0 c 0,0 -74.524,16.799 -100.44,-84.898 -25.926,-101.699 65.901,-107.799 97.537,-86.282 31.634,21.522 45.501,38.592 47.447,70.063 l 6.27,-39.222 c 0,0 -80.234,-90.52 -139.051,-37.093 -52.914,48.072 -7.171,194.667 76.382,192.915 z" /></g><g
           transform="translate(745.5293,1399.3413)"
           id="g332"><path
             id="path334"
             style="fill:#30302f;fill-opacity:1;fill-rule:nonzero;stroke:none"
             d="m 0,0 c 0,0 24.938,19.935 42.047,-3.45 21.251,-29.061 20.671,-148.97 -47.96,-140.465 0,0 -15.609,31.751 -7.558,22.669 8.042,-9.082 31.867,-5.985 35.864,30.905 3.987,36.889 4.084,111.326 -33.415,70.962 z" /></g><g
           transform="translate(334.6348,1291.561)"
           id="g336"><path
             id="path338"
             style="fill:#30302f;fill-opacity:1;fill-rule:nonzero;stroke:none"
             d="m 0,0 c -35.477,40.61 -44.389,76.16 -39.589,105.317 11.206,68.234 87.782,108.119 149.31,67.605 C 171.239,132.413 208.156,52.867 181.07,-12.474 153.984,-77.814 35.477,-40.615 0,0 m 134.833,177.833 c -53.118,31.848 -79.866,29.656 -118.885,17.55 -48.26,-14.97 -94.73,-89.379 -32.824,-187.718 76.643,-99.676 177.973,-54.444 190.253,-43.46 70.093,64.352 18.541,179.4 -38.544,213.628" /></g><g
           transform="translate(706.5107,1547.7847)"
           id="g340"><path
             id="path342"
             style="fill:#30302f;fill-opacity:1;fill-rule:nonzero;stroke:none"
             d="m 0,0 c 0,0 -59.443,156.239 -140.082,216.092 0,0 -1.424,-2.323 -0.267,-3.402 12.823,-11.995 92.96,-90.544 120.075,-218.617 L 7.384,-20.379 Z" /></g><g
           transform="translate(541.9297,1750.4453)"
           id="g344"><path
             id="path346"
             style="fill:#30302f;fill-opacity:1;fill-rule:nonzero;stroke:none"
             d="m 0,0 c 0,0 1.559,-0.204 3.892,-2.962 15.705,-18.571 77.01,-97.667 89.891,-191.986 0,0 -77.428,20.318 -128.91,21.174 0,0 -13.181,8.976 4.441,8.438 24.097,-0.735 86.03,-10.586 110.824,-17.738 0,0 -1.655,67.17 -80.138,183.074" /></g><g
           transform="translate(524.5117,1576.7393)"
           id="g348"><path
             id="path350"
             style="fill:#30302f;fill-opacity:1;fill-rule:nonzero;stroke:none"
             d="m 0,0 c 0,0 -108.53,132.283 -210.479,166.893 l -3.417,-1.244 c 0,0 75.308,-16.993 184.7,-166.017 z" /></g><g
           transform="translate(297.7847,1725.2354)"
           id="g352"><path
             id="path354"
             style="fill:#30302f;fill-opacity:1;fill-rule:nonzero;stroke:none"
             d="m 0,0 c 0,0 95.494,-53.66 130.177,-153.025 l -24.184,-1.801 c 0,0 8.845,51.425 -103.071,147.912 z" /></g><g
           transform="translate(297.7847,1725.2354)"
           id="g356"><path
             id="path358"
             style="fill:#30302f;fill-opacity:1;fill-rule:nonzero;stroke:none"
             d="m 0,0 c -7.432,-9.909 -19.065,-17.849 -32.361,-19.229 -25.305,-2.626 -47.96,15.765 -50.582,41.08 -2.632,25.311 15.764,47.961 41.069,50.588 C -16.558,75.062 6.086,56.675 8.719,31.364 9.183,26.888 8.961,22.509 8.186,18.3 l 9.688,-2.662 c 1.016,5.081 0.832,11.284 0.271,16.704 -3,28.881 -28.849,49.861 -57.726,46.861 -28.876,-2.995 -49.856,-28.833 -46.866,-57.719 2.999,-28.882 28.848,-49.862 57.725,-46.862 14.099,1.461 26.283,8.39 34.741,18.435 z" /></g><g
           transform="translate(543.4111,1750.8706)"
           id="g360"><path
             id="path362"
             style="fill:#30302f;fill-opacity:1;fill-rule:nonzero;stroke:none"
             d="m 0,0 c -1.239,-0.251 -2.506,-0.455 -3.784,-0.59 -22.16,-2.294 -41.98,13.799 -44.283,35.956 -2.303,22.155 13.8,41.979 35.961,44.277 C 10.035,81.942 29.863,65.849 32.167,43.692 33.454,31.311 28.983,19.659 20.923,11.38 L 26.205,6.377 C 36.241,15.875 41.951,29.738 40.412,44.549 37.789,69.831 15.164,88.193 -10.113,85.571 -35.381,82.943 -53.747,60.333 -51.125,35.046 -48.502,9.764 -25.886,-8.594 -0.61,-5.971 c 1.568,0.164 3.097,0.406 4.597,0.716 z" /></g><g
           transform="translate(655.0386,1143.4185)"
           id="g364"><path
             id="path366"
             style="fill:#30302f;fill-opacity:1;fill-rule:nonzero;stroke:none"
             d="m 0,0 c 11.583,1.698 37.508,5.491 41.737,6.691 4.926,1.403 6.6,-2.826 1.374,-4.587 -5.226,-1.761 -29.709,-6.067 -50.1,-7.025 -20.388,-0.958 -46.876,-5.429 -85.381,23.032 -3.551,2.399 -0.028,8.718 5.37,4.121 C -81.599,17.631 -53.448,-7.844 0,0" /></g><g
           transform="translate(1204.8428,831.5112)"
           id="g368"><path
             id="path370"
             style="fill:#ffffff;fill-opacity:1;fill-rule:nonzero;stroke:none"
             d="m 0,0 c 27.065,2.112 109.815,4.344 130.632,-104.638 0,0 105.307,-26.085 108.495,-94.635 3.189,-68.549 -80.297,-111.058 -160.509,-108.934 l 13.845,-318.306 c 0,0 52.394,-10.752 52.992,-47.217 0.598,-36.465 -72.707,-38.99 -100.915,-24.577 0,0 -23.977,-21.527 -41.336,-20.295 -17.359,1.233 -69.964,-4.746 -71.16,38.893 -1.195,43.639 -2.988,40.052 -2.988,40.052 l -52.607,2.392 -7.769,-17.336 c 0,0 44.235,-9.565 44.235,-31.683 0,-22.118 -43.041,-35.867 -67.55,-35.867 -24.51,0 -98.635,4.184 -132.11,78.31 0,0 -43.043,-4.184 -79.507,47.823 0,0 29.89,-19.128 71.734,-10.759 0,0 -13.15,95.048 11.956,132.708 25.107,37.66 96.244,89.668 127.927,118.96 31.682,29.292 52.007,65.755 51.409,115.373 C -103.823,-190.12 -129.911,-10.139 0,0" /></g><g
           transform="translate(1083.6904,245.6392)"
           id="g372"><path
             id="path374"
             style="fill:#d0d2d3;fill-opacity:1;fill-rule:nonzero;stroke:none"
             d="m 0,0 c 0,0 38.263,-7.175 49.024,-3.587 l -3.586,105.016 c 0,0 29.894,-207.852 55.004,-212.635 25.111,-4.783 53.419,-0.404 64.376,17.137 0,0 0.196,25.911 -28.503,36.673 l -3.587,94.464 c 0,0 43.046,38.265 40.655,1.196 0,0 -7.175,-21.524 -9.567,-26.306 -2.391,-4.784 3.589,-93.27 3.589,-93.27 0,0 75.332,-41.851 98.051,-1.196 0,0 1.36,-55.07 -99.764,-29.927 0,0 -26.985,-25.077 -60.466,-22.685 -33.482,2.391 -56.201,3.586 -55.006,78.919 l -52.225,8.335 c 0,0 3.199,32.321 2.005,47.866" /></g><g
           transform="translate(1157.8262,823.1885)"
           id="g376"><path
             id="path378"
             style="fill:#d0d2d3;fill-opacity:1;fill-rule:nonzero;stroke:none"
             d="m 0,0 c 0,0 -50.223,-69.354 -38.265,-156.644 11.957,-87.29 -13.152,-199.691 -78.919,-236.759 -65.766,-37.069 -105.227,-190.125 -96.856,-218.824 8.37,-28.697 27.502,-56.2 86.094,-53.808 l -40.655,-7.175 c 0,0 27.502,-21.524 44.243,-26.307 16.74,-4.783 50.222,-8.37 50.222,-8.37 0,0 -53.81,-13.153 -87.291,-1.196 -33.481,11.958 -70.551,50.222 -78.92,77.725 0,0 -46.633,-8.371 -75.332,41.851 0,0 39.459,-32.286 71.745,-23.915 0,0 -20.328,38.264 -9.565,89.681 10.761,51.418 55.003,107.618 98.051,139.904 43.047,32.285 101.639,71.745 100.444,168.601 C -56.2,-118.379 -49.026,-29.894 0,0" /></g><g
           transform="translate(1061.9561,329.5996)"
           id="g380"><path
             id="path382"
             style="fill:#30302f;fill-opacity:1;fill-rule:nonzero;stroke:none"
             d="m 0,0 c 0,0 46.633,-125.549 -12.555,-159.626 -59.186,-34.078 -104.026,-3.588 -104.026,-3.588 0,0 41.861,-29.047 91.472,-14.348 C 23.316,-163.214 52.014,-124.652 0,0" /></g><g
           transform="translate(1272.6992,735.8408)"
           id="g384"><path
             id="path386"
             style="fill:#231f20;fill-opacity:1;fill-rule:nonzero;stroke:none"
             d="m 0,0 c 0,-12.382 -4.216,-22.419 -9.416,-22.419 -5.2,0 -9.416,10.037 -9.416,22.419 0,12.382 4.216,22.419 9.416,22.419 C -4.216,22.419 0,12.382 0,0" /></g><g
           transform="translate(1305.8799,739.4277)"
           id="g388"><path
             id="path390"
             style="fill:#231f20;fill-opacity:1;fill-rule:nonzero;stroke:none"
             d="m 0,0 c 0,-12.382 -4.215,-22.419 -9.416,-22.419 -5.2,0 -9.416,10.037 -9.416,22.419 0,12.382 4.216,22.42 9.416,22.42 C -4.215,22.42 0,12.382 0,0" /></g><g
           transform="translate(1437.9961,654.0674)"
           id="g392"><path
             id="path394"
             style="fill:#231f20;fill-opacity:1;fill-rule:nonzero;stroke:none"
             d="m 0,0 c 0,-10.836 -17.131,-19.621 -38.262,-19.621 -21.132,0 -38.261,8.785 -38.261,19.621 0,10.837 17.129,19.621 38.261,19.621 C -17.131,19.621 0,10.837 0,0" /></g><g
           transform="translate(1105.0088,614.3545)"
           id="g396"><path
             id="path398"
             style="fill:#231f20;fill-opacity:1;fill-rule:nonzero;stroke:none"
             d="m 0,0 c 1.148,67.249 -10.769,214.751 107.606,214.751 118.376,0 114.146,-110.216 114.146,-110.216 0,0 110.05,-9.952 111.843,-82.591 1.794,-72.639 -101.336,-143.485 -238.543,-86.091 0,0 69.949,-49.323 164.11,-19.729 94.163,29.594 82.504,104.026 80.71,122.859 -1.793,18.832 -34.974,67.258 -109.406,73.536 0,0 0.895,106.716 -121.066,109.406 C -12.563,224.616 -9.864,113.891 -6.277,-5.381 -2.69,-124.652 -106.724,-170.863 -134.523,-194.18 c -27.801,-23.317 -83.402,-84.297 -72.64,-173.079 10.761,-88.781 58.29,-111.2 58.29,-111.2 0,0 -53.806,63.671 -46.632,140.794 7.174,77.123 52.91,132.723 105.82,165.905 C -36.775,-138.58 -1.793,-104.923 0,0" /></g><g
           transform="translate(1215.3057,378.9053)"
           id="g400"><path
             id="path402"
             style="fill:#231f20;fill-opacity:1;fill-rule:nonzero;stroke:none"
             d="m 0,0 -2.69,-189.688 c 13.453,-10.763 29.597,-13.453 35.893,-37.647 8.406,-32.298 -37.664,-36.768 -61.878,-35.871 -24.213,0.896 -47.638,6.277 -46.741,46.632 0.323,14.557 -10.762,184.737 -10.762,184.737 0,0 3.587,-184.737 4.484,-199.085 0.896,-14.349 12.665,-39.459 51.226,-38.561 38.561,0.896 76.97,10.745 73.535,44.838 -2.708,26.885 -34.995,37.648 -34.995,37.648 z" /></g><g
           transform="translate(1288.8408,526.8911)"
           id="g404"><path
             id="path406"
             style="fill:#231f20;fill-opacity:1;fill-rule:nonzero;stroke:none"
             d="m 0,0 -5.38,-3.587 7.619,-322.391 c 0,0 50.22,-5.381 53.807,-38.562 3.587,-33.18 -37.664,-36.768 -61.877,-35.871 -9.039,0.334 -25.107,3.138 -33.627,6.724 -7.013,2.955 4.488,-11.209 30.939,-12.106 38.55,-1.306 78.017,9.866 74.43,43.943 -3.587,34.078 -50.219,43.943 -50.219,43.943 z" /></g><g
           transform="translate(1069.1309,172.6636)"
           id="g408"><path
             id="path410"
             style="fill:#30302f;fill-opacity:1;fill-rule:nonzero;stroke:none"
             d="M 0,0 C 0,0 56.497,-4.484 44.839,-34.078 33.181,-63.672 -75.329,-78.02 -124.652,-22.419 h -7.175 c 0,0 45.736,-53.808 120.169,-43.943 74.432,9.865 95.057,56.497 13.451,77.123 z" /></g><g
           transform="translate(1273.5967,354.7095)"
           id="g412"><path
             id="path414"
             style="fill:#231f20;fill-opacity:1;fill-rule:nonzero;stroke:none"
             d="m 0,0 c 0,0 -7.175,-89.678 -57.395,-123.755 l 0.897,-13.452 c 0,0 54.704,20.625 56.498,137.207" /></g><g
           transform="translate(1081.6855,197.7729)"
           id="g416"><path
             id="path418"
             style="fill:#231f20;fill-opacity:1;fill-rule:nonzero;stroke:none"
             d="M 0,0 C 0,0 45.947,-4.15 52.225,1.231 V -13.118 L -2.69,-7.174 Z" /></g><g
           transform="translate(1060.9688,138.021)"
           id="g420"><path
             id="path422"
             style="fill:#231f20;fill-opacity:1;fill-rule:nonzero;stroke:none"
             d="m 0,0 c 0,0 11.958,-4.783 7.175,-28.699 l 8.37,3.588 c 0,0 -1.195,16.74 -15.545,25.111" /></g><g
           transform="translate(1094.4502,145.1953)"
           id="g424"><path
             id="path426"
             style="fill:#231f20;fill-opacity:1;fill-rule:nonzero;stroke:none"
             d="m 0,0 c 0,0 5.979,-10.762 7.175,-21.524 l 4.783,4.783 c 0,0 -5.979,9.566 -11.958,16.741" /></g><g
           transform="translate(1198.4805,146.3911)"
           id="g428"><path
             id="path430"
             style="fill:#231f20;fill-opacity:1;fill-rule:nonzero;stroke:none"
             d="m 0,0 c 0,0 9.566,-11.958 2.393,-32.286 l 7.173,-1.195 c 0,0 3.588,25.111 -9.566,33.481" /></g><g
           transform="translate(1227.1797,154.7617)"
           id="g432"><path
             id="path434"
             style="fill:#231f20;fill-opacity:1;fill-rule:nonzero;stroke:none"
             d="m 0,0 c 0,0 9.565,-11.958 2.392,-32.286 l 7.173,-1.196 c 0,0 3.588,25.111 -9.565,33.482" /></g><g
           transform="translate(1306.0996,159.5444)"
           id="g436"><path
             id="path438"
             style="fill:#231f20;fill-opacity:1;fill-rule:nonzero;stroke:none"
             d="m 0,0 c 0,0 9.565,-11.958 2.392,-32.286 l 7.173,-1.195 c 0,0 3.588,25.11 -9.565,33.481" /></g><g
           transform="translate(1330.0146,167.9146)"
           id="g440"><path
             id="path442"
             style="fill:#231f20;fill-opacity:1;fill-rule:nonzero;stroke:none"
             d="m 0,0 c 0,0 9.565,-11.958 2.391,-32.286 l 7.174,-1.195 c 0,0 3.589,25.111 -9.565,33.481" /></g><g
           transform="translate(1187.7188,808.8394)"
           id="g444"><path
             id="path446"
             style="fill:none;stroke:#231f20;stroke-width:11.95600033;stroke-linecap:round;stroke-linejoin:miter;stroke-miterlimit:10;stroke-dasharray:none;stroke-opacity:1"
             d="M 0,0 -26.306,315.679" /></g><g
           transform="translate(1252.29,818.4058)"
           id="g448"><path
             id="path450"
             style="fill:none;stroke:#231f20;stroke-width:11.95600033;stroke-linecap:round;stroke-linejoin:miter;stroke-miterlimit:10;stroke-dasharray:none;stroke-opacity:1"
             d="M 0,0 19.133,297.743" /></g><g
           transform="translate(1236.7451,1125.7148)"
           id="g452"><path
             id="path454"
             style="fill:#231f20;fill-opacity:1;fill-rule:nonzero;stroke:none"
             d="m 0,0 c 0,-11.887 -19.273,-21.524 -43.047,-21.524 -23.773,0 -43.047,9.637 -43.047,21.524 0,11.887 19.274,21.523 43.047,21.523 C -19.273,21.523 0,11.887 0,0" /></g><g
           transform="translate(1347.5732,1102.2256)"
           id="g456"><path
             id="path458"
             style="fill:#231f20;fill-opacity:1;fill-rule:nonzero;stroke:none"
             d="m 0,0 c -3.186,-11.453 -24.335,-15.574 -47.24,-9.206 -22.906,6.369 -38.892,20.816 -35.708,32.268 3.183,11.453 24.334,15.575 47.24,9.206 C -12.804,25.899 3.185,11.452 0,0" /></g><g
           transform="translate(1428.0635,659.3701)"
           id="g460"><path
             id="path462"
             style="fill:#ffffff;fill-opacity:1;fill-rule:nonzero;stroke:none"
             d="m 0,0 c 0,-7.111 -11.241,-12.876 -25.108,-12.876 -13.866,0 -25.108,5.765 -25.108,12.876 0,7.112 11.242,12.876 25.108,12.876 C -11.241,12.876 0,7.112 0,0" /></g><g
           transform="translate(1226.1006,1130.498)"
           id="g464"><path
             id="path466"
             style="fill:#ffffff;fill-opacity:1;fill-rule:nonzero;stroke:none"
             d="m 0,0 c 0,-5.791 -9.153,-10.485 -20.444,-10.485 -11.291,0 -20.446,4.694 -20.446,10.485 0,5.791 9.155,10.484 20.446,10.484 C -9.153,10.484 0,5.791 0,0" /></g><g
           transform="translate(1341.1348,1105.1968)"
           id="g468"><path
             id="path470"
             style="fill:#ffffff;fill-opacity:1;fill-rule:nonzero;stroke:none"
             d="m 0,0 c -1.747,-5.52 -11.888,-7.234 -22.654,-3.827 -10.765,3.407 -18.075,10.644 -16.328,16.164 1.747,5.521 11.889,7.234 22.655,3.827 C -5.562,12.758 1.747,5.521 0,0" /></g><g
           transform="translate(1284.0732,486.4194)"
           id="g472"><path
             id="path474"
             style="fill:#231f20;fill-opacity:1;fill-rule:nonzero;stroke:none"
             d="m 0,0 c 0,-8.208 -6.654,-14.862 -14.862,-14.862 -8.207,0 -14.862,6.654 -14.862,14.862 0,8.208 6.655,14.861 14.862,14.861 C -6.654,14.861 0,8.208 0,0" /></g><g
           transform="translate(1261.3428,492.5391)"
           id="g476"><path
             id="path478"
             style="fill:#231f20;fill-opacity:1;fill-rule:nonzero;stroke:none"
             d="m 0,0 -45.459,25.353 6.993,-72.562 37.593,36.718 z" /></g><g
           transform="translate(1272.2666,491.8403)"
           id="g480"><path
             id="path482"
             style="fill:#231f20;fill-opacity:1;fill-rule:nonzero;stroke:none"
             d="M 0,0 41.422,31.521 44.75,-41.301 2.348,-10.263 Z" /></g><g
           transform="translate(1222.3975,587.625)"
           id="g484"><path
             id="path486"
             style="fill:#231f20;fill-opacity:1;fill-rule:nonzero;stroke:none"
             d="m 0,0 c 0,0 31.09,-56.201 99.247,-59.788 l -32.804,-0.946 c 0,0 -47.311,8.121 -66.443,60.734" /></g><g
           transform="translate(906.7178,228.8984)"
           id="g488"><path
             id="path490"
             style="fill:#231f20;fill-opacity:1;fill-rule:nonzero;stroke:none"
             d="m 0,0 c 0,0 -44.243,-13.153 -82.507,26.307 0,0 33.481,-80.116 98.052,-71.745 l -4.783,8.37 c 0,0 -38.264,0 -68.158,37.068 0,0 29.893,-14.35 58.591,-10.762 z" /></g></g></g></g></svg>