<svg xmlns="http://www.w3.org/2000/svg" xmlns:xlink="http://www.w3.org/1999/xlink" viewBox="0 0 120 120">
	<defs>
		<path id="a" d="M.031.018H3.64v3.608H.031z"/>
		<path id="c" d="M.031.018H3.64v3.608H.031z"/>
	</defs>

	<g fill="none" fill-rule="evenodd">
		<circle cx="60" cy="60" r="60" fill="#E6E6EB" fill-rule="nonzero"/>
		<path fill="#7B7C8E" fill-rule="nonzero" d="M105.762 38.229l-.286-1.139a.542.542 0 0 0-.381-.381l-1.14-.286a.125.125 0 0 1 0-.24l1.14-.287a.542.542 0 0 0 .381-.381l.286-1.139a.125.125 0 0 1 .24 0l.287 1.139c.05.186.195.33.381.381l1.139.286a.125.125 0 0 1 0 .24l-1.139.287a.542.542 0 0 0-.381.381l-.286 1.139a.125.125 0 0 1-.241 0M82.569 21.086l-.286-1.139a.542.542 0 0 0-.382-.381l-1.138-.286a.125.125 0 0 1 0-.24l1.138-.287a.542.542 0 0 0 .382-.381l.286-1.139a.125.125 0 0 1 .24 0l.286 1.139c.05.186.196.331.382.381l1.139.286a.125.125 0 0 1 0 .241l-1.14.286a.542.542 0 0 0-.38.381l-.287 1.14a.125.125 0 0 1-.24 0M27.106 27.137l-.285-1.14a.542.542 0 0 0-.382-.38L25.3 25.33a.125.125 0 0 1 0-.24l1.14-.286a.542.542 0 0 0 .38-.382l.286-1.138a.125.125 0 0 1 .241 0l.286 1.138c.05.186.196.331.382.382l1.138.286a.125.125 0 0 1 0 .24l-1.138.286a.542.542 0 0 0-.382.382l-.286 1.139a.125.125 0 0 1-.24 0M101.728 64.448l-.286-1.14a.542.542 0 0 0-.38-.38l-1.14-.287a.125.125 0 0 1 0-.24l1.14-.286a.542.542 0 0 0 .38-.382l.286-1.138a.125.125 0 0 1 .241 0l.286 1.138c.05.186.196.331.381.382l1.14.286a.125.125 0 0 1 0 .24l-1.14.286a.542.542 0 0 0-.38.382l-.287 1.139a.125.125 0 0 1-.24 0M28.115 85.624l-.286-1.139a.542.542 0 0 0-.381-.381l-1.14-.286a.125.125 0 0 1 0-.24l1.14-.287a.542.542 0 0 0 .38-.381l.287-1.139a.125.125 0 0 1 .24 0l.287 1.139c.05.186.195.33.381.381l1.139.286a.125.125 0 0 1 0 .24l-1.139.287a.542.542 0 0 0-.381.381l-.286 1.139a.125.125 0 0 1-.241 0M7.947 71.506l-.286-1.139a.542.542 0 0 0-.381-.38L6.14 69.7a.125.125 0 0 1 0-.24l1.14-.287a.542.542 0 0 0 .38-.38l.287-1.14a.125.125 0 0 1 .24 0l.287 1.14c.05.185.195.33.38.38l1.14.286a.125.125 0 0 1 0 .241l-1.14.286a.542.542 0 0 0-.38.381l-.286 1.14a.125.125 0 0 1-.241 0M19.04 50.33l-.287-1.139a.542.542 0 0 0-.381-.381l-1.139-.286a.125.125 0 0 1 0-.241l1.139-.286a.542.542 0 0 0 .381-.381l.286-1.14a.125.125 0 0 1 .241 0l.286 1.14c.05.186.196.33.381.381l1.14.286a.125.125 0 0 1 0 .24l-1.14.287a.542.542 0 0 0-.381.381l-.286 1.139a.125.125 0 0 1-.24 0M93.661 91.674l-.286-1.138a.542.542 0 0 0-.381-.382l-1.139-.286a.125.125 0 0 1 0-.24l1.139-.286a.542.542 0 0 0 .381-.382l.286-1.139a.125.125 0 0 1 .24 0l.287 1.14c.05.185.195.33.381.38l1.139.286a.125.125 0 0 1 0 .241l-1.139.286a.542.542 0 0 0-.381.382l-.286 1.138a.125.125 0 0 1-.24 0M76.518 57.389l-.286-1.14a.542.542 0 0 0-.381-.38l-1.139-.286a.125.125 0 0 1 0-.241l1.139-.286a.542.542 0 0 0 .381-.381l.286-1.14a.125.125 0 0 1 .241 0l.286 1.14c.05.185.196.33.381.38l1.14.287a.125.125 0 0 1 0 .24l-1.14.287a.542.542 0 0 0-.381.38l-.286 1.14a.125.125 0 0 1-.24 0"/>
		<g transform="translate(51.429 12.1)">
			<mask id="b" fill="#fff">
				<use xlink:href="#a"/>
			</mask>
			<g mask="url(#b)">
				<mask id="d" fill="#fff">
					<use xlink:href="#c"/>
				</mask>
				<path fill="#7B7C8E" fill-rule="nonzero" d="M1.73 3.54l-.26-1.017a.448.448 0 0 0-.34-.336l-1.018-.26a.108.108 0 0 1 0-.21l1.017-.26a.475.475 0 0 0 .341-.341L1.73.099a.108.108 0 0 1 .21 0l.26 1.017c.038.17.171.303.341.34l1.018.26a.108.108 0 0 1 0 .211l-1.018.26a.448.448 0 0 0-.34.336l-.26 1.018a.108.108 0 0 1-.211 0" mask="url(#d)"/>
			</g>
		</g>
		<path fill="#7B7C8E" fill-rule="nonzero" d="M47.275 43.271l-.286-1.139a.542.542 0 0 0-.382-.381l-1.139-.286a.125.125 0 0 1 0-.24l1.14-.287a.542.542 0 0 0 .38-.381l.287-1.139a.125.125 0 0 1 .24 0l.286 1.139c.05.186.196.33.382.381l1.138.286a.125.125 0 0 1 0 .24l-1.138.287a.542.542 0 0 0-.382.381l-.286 1.139a.125.125 0 0 1-.24 0M80.552 111.842l-.286-1.138a.542.542 0 0 0-.381-.382l-1.14-.286a.125.125 0 0 1 0-.24l1.14-.286a.542.542 0 0 0 .38-.382l.287-1.139a.125.125 0 0 1 .24 0l.287 1.14c.05.185.195.33.38.38l1.14.287a.125.125 0 0 1 0 .24l-1.14.286a.542.542 0 0 0-.38.382l-.286 1.138a.125.125 0 0 1-.241 0M42.233 108.817l-.286-1.139a.542.542 0 0 0-.382-.38l-1.139-.287a.125.125 0 0 1 0-.24l1.14-.287a.542.542 0 0 0 .38-.38l.287-1.14a.125.125 0 0 1 .24 0l.286 1.14c.05.185.196.33.382.38l1.138.286a.125.125 0 0 1 0 .241l-1.138.286a.542.542 0 0 0-.382.381l-.286 1.14a.125.125 0 0 1-.24 0"/>
		<path fill="#7B7C8E" fill-rule="nonzero" d="M100.78 26.783l-.141-.456c-.026-.073-.1-.13-.192-.149l-.57-.117c-.025-.006-.043-.025-.043-.046 0-.022.018-.04.043-.047l.57-.117c.095-.018.168-.077.192-.153l.14-.452c.011-.02.035-.032.061-.032.027 0 .05.013.06.032l.142.452c.023.076.097.135.192.153l.57.117c.025.007.043.025.043.047 0 .021-.018.04-.044.046l-.57.117c-.092.019-.165.076-.191.15l-.141.455c0 .027-.027.049-.06.049-.034 0-.061-.022-.061-.049M104.813 55.018l-.14-.455c-.027-.074-.1-.13-.192-.15l-.57-.117c-.026-.006-.043-.025-.043-.046 0-.021.017-.04.043-.046l.57-.117c.094-.019.168-.078.191-.154l.141-.451c.01-.02.034-.033.06-.033.027 0 .051.013.061.033l.142.451c.023.076.097.135.191.154l.57.117c.026.006.043.025.043.046 0 .021-.017.04-.043.046l-.57.117c-.092.02-.165.076-.191.15l-.142.455c0 .027-.027.049-.06.049s-.06-.022-.06-.049M104.813 84.151l-.14-.57a.267.267 0 0 0-.192-.186l-.57-.146a.06.06 0 0 1 0-.116l.57-.146a.262.262 0 0 0 .191-.192l.141-.565a.06.06 0 1 1 .121 0l.142.565a.262.262 0 0 0 .191.192l.57.146a.06.06 0 0 1 0 .116l-.57.146a.267.267 0 0 0-.191.187l-.142.57a.06.06 0 0 1-.12 0M90.696 103.31l-.141-.569a.267.267 0 0 0-.192-.186l-.57-.147a.06.06 0 0 1 0-.116l.57-.146a.262.262 0 0 0 .192-.191l.14-.565a.06.06 0 1 1 .122 0l.141.565a.262.262 0 0 0 .192.191l.57.146a.06.06 0 0 1 0 .116l-.57.147a.267.267 0 0 0-.192.186l-.141.57a.06.06 0 0 1-.121 0M57.418 113.395l-.14-.57a.267.267 0 0 0-.192-.186l-.57-.147a.06.06 0 0 1 0-.116l.57-.146a.262.262 0 0 0 .191-.191l.141-.565a.06.06 0 0 1 .121 0l.142.565a.262.262 0 0 0 .191.191l.57.146a.06.06 0 0 1 0 .116l-.57.147a.267.267 0 0 0-.191.186l-.142.57a.06.06 0 0 1-.12 0M28.175 98.783l-.141-.456c-.026-.073-.1-.13-.192-.149l-.57-.117c-.025-.006-.043-.025-.043-.046 0-.022.018-.04.043-.047l.57-.117c.094-.018.168-.077.192-.153l.14-.452c0-.026.028-.048.061-.048.034 0 .06.022.06.048l.142.452c.023.076.097.135.192.153l.57.117c.025.007.043.025.043.047 0 .021-.018.04-.044.046l-.57.117c-.092.019-.165.076-.191.15l-.141.455c-.01.02-.034.032-.06.032-.027 0-.051-.012-.061-.032M9.015 79.22l-.141-.456c-.026-.073-.099-.13-.192-.149l-.57-.117c-.025-.006-.043-.025-.043-.046 0-.022.018-.04.044-.047l.57-.117c.094-.018.168-.077.19-.153l.142-.452c.01-.02.034-.032.06-.032.027 0 .051.013.061.032l.141.452c.024.076.097.135.192.153l.57.117c.025.006.043.025.043.047 0 .021-.018.04-.043.046l-.57.117c-.093.019-.166.076-.192.15l-.14.455c0 .027-.028.049-.061.049-.034 0-.06-.022-.06-.049M14.057 41.798l-.141-.57a.267.267 0 0 0-.192-.186l-.57-.146a.06.06 0 0 1 0-.116l.57-.146a.262.262 0 0 0 .192-.192l.141-.565a.06.06 0 0 1 .121 0l.141.565a.262.262 0 0 0 .192.192l.57.146a.06.06 0 0 1 0 .116l-.57.146a.267.267 0 0 0-.192.187l-.14.57a.06.06 0 0 1-.122 0M33.217 26.672l-.141-.57a.267.267 0 0 0-.192-.186l-.57-.146a.06.06 0 0 1 0-.116l.57-.146a.262.262 0 0 0 .192-.192l.14-.565a.06.06 0 1 1 .122 0l.141.565a.262.262 0 0 0 .192.192l.57.146a.06.06 0 0 1 0 .116l-.57.146a.267.267 0 0 0-.192.187l-.141.57a.06.06 0 0 1-.121 0M52.376 7.018l-.14-.455c-.027-.074-.1-.13-.192-.15l-.57-.117c-.026-.006-.043-.025-.043-.046 0-.021.017-.04.043-.046l.57-.117c.094-.019.168-.078.191-.154l.141-.451c0-.027.028-.049.061-.049s.06.022.06.049l.142.451c.023.076.097.135.191.154l.57.117c.026.006.043.025.043.046 0 .021-.017.04-.043.046l-.57.117c-.092.02-.165.076-.191.15l-.142.455c-.01.02-.034.033-.06.033-.026 0-.05-.013-.06-.033M76.578 26.783l-.141-.456c-.026-.073-.099-.13-.192-.149l-.57-.117c-.025-.006-.043-.025-.043-.046 0-.022.018-.04.044-.047l.57-.117c.094-.018.168-.077.191-.153l.141-.452c.01-.02.034-.032.06-.032.027 0 .051.013.061.032l.141.452c.024.076.097.135.192.153l.57.117c.025.007.043.025.043.047 0 .021-.018.04-.043.046l-.57.117c-.093.019-.166.076-.192.15l-.14.455c0 .027-.028.049-.061.049-.034 0-.06-.022-.06-.049M57.418 50.985l-.14-.456c-.027-.073-.1-.13-.192-.15l-.57-.116c-.026-.006-.043-.025-.043-.047 0-.02.017-.04.043-.046l.57-.117c.094-.019.168-.078.191-.153l.141-.452c.01-.02.035-.032.061-.032.026 0 .05.013.06.032l.142.452c.023.075.097.134.191.153l.57.117c.026.006.043.025.043.046 0 .022-.017.04-.043.047l-.57.117c-.092.019-.165.076-.191.15l-.142.455c0 .027-.027.048-.06.048s-.06-.021-.06-.048" opacity=".3"/>
		<path fill="#A7A9BC" fill-rule="nonzero" d="M53.788 96.807a13.869 13.869 0 0 1-5.307-3.234 12.545 12.545 0 0 1-3.103-5.179l1.08-1.055s2.526.454 5.287 3.214 3.123 5.198 3.123 5.198l-1.08 1.056zM66.439 83.67a11.694 11.694 0 0 1-5.15-2.897 10.708 10.708 0 0 1-2.776-5.023l1.129-1.128s2.531.278 5.13 2.877c2.6 2.6 2.791 5.047 2.791 5.047l-1.124 1.124z"/>
		<path fill="#F1F2F5" fill-rule="nonzero" d="M54.978 94.79a15.983 15.983 0 0 0-3.163-4.542 14.449 14.449 0 0 0-4.42-3.05l9.308-9.313s2.373.312 4.873 2.8c2.5 2.489 2.715 4.791 2.715 4.791l-9.313 9.314zm13.114-13.11a15.983 15.983 0 0 0-3.163-4.541 14.449 14.449 0 0 0-4.42-3.05l5.517-5.518s2.373.308 4.873 2.8c2.5 2.494 2.714 4.792 2.714 4.792l-5.521 5.518z"/>
		<path fill="#CDCED9" fill-rule="nonzero" d="M73.278 80.338l9.411 9.41-14.117 14.118-9.411-9.412 14.117-14.116zm-27.564.669l-9.411-9.41L50.42 57.478l9.41 9.411-14.116 14.117z"/>
		<path fill="#7B7C8E" fill-rule="nonzero" d="M73.864 79.473l-1.69 1.69-1.344-1.355 2.948-2.949a9.822 9.822 0 0 0-2.718-6.078l1.497-1.498a2.392 2.392 0 0 0 2.998-3.7 2.392 2.392 0 0 0-3.677 3.025l-1.493 1.493a9.85 9.85 0 0 0-6.076-2.718l-2.953 2.948-1.363-1.34 1.694-1.69-10.828-10.83-15.565 15.554 10.828 10.846 1.694-1.695 1.354 1.355-4.737 4.738s.31 2.68 3.139 5.657l-.479.479a2.392 2.392 0 0 0-2.997 3.7 2.392 2.392 0 0 0 3.677-3.025l.478-.479c2.957 2.762 5.66 3.145 5.66 3.145l4.737-4.739 1.35 1.355-1.69 1.69 10.828 10.83L84.706 90.3 73.864 79.473zm-34.847-5.744l-1.68-1.704 1.69-1.694 1.693 1.694-1.703 1.704zm2.368-2.393l-1.689-1.69 1.69-1.694 1.693 1.704-1.694 1.68zm2.392-2.369l-1.689-1.69 1.69-1.694 1.693 1.704-1.694 1.68zm2.393-2.369l-1.69-1.69 1.642-1.66 1.694 1.694-1.646 1.656zm2.392-2.364l-1.689-1.695 1.69-1.694 1.693 1.694-1.694 1.695zm2.392-2.393l-1.689-1.695 1.69-1.694 1.693 1.694-1.694 1.695zm-9.473 14.21l-1.69-1.69 1.69-1.694 1.598 1.728-1.598 1.656zm2.392-2.37l-1.689-1.69 1.69-1.693 1.597 1.727-1.598 1.656zm2.392-2.393l-1.689-1.69 1.69-1.693 1.693 1.694-1.694 1.69zm2.393-2.369l-1.69-1.69 1.69-1.694 1.694 1.695-1.694 1.69zm2.392-2.369l-1.689-1.69 1.69-1.694 1.693 1.695-1.694 1.69zm2.369-2.364l-1.69-1.694 1.69-1.695 1.693 1.695-1.693 1.694zm-9.474 14.21l-1.69-1.69 1.69-1.694 1.526 1.752-1.526 1.632zm2.392-2.393l-1.689-1.69 1.69-1.694 1.693 1.694-1.694 1.69zm2.393-2.37l-1.69-1.689 1.69-1.694 1.693 1.694-1.693 1.69zm2.392-2.392l-1.689-1.69 1.689-1.694 1.694 1.694-1.694 1.69zm2.368-2.37l-1.689-1.69 1.69-1.693 1.693 1.694-1.694 1.69zm2.393-2.369l-1.69-1.69 1.69-1.694 1.694 1.695-1.694 1.69zm-9.474 14.215l-1.689-1.69 1.689-1.694 1.694 1.695-1.694 1.689zm2.392-2.37l-1.689-1.689 1.69-1.694 1.693 1.694-1.694 1.69zm2.393-2.392l-1.69-1.69 1.69-1.694 1.694 1.694-1.694 1.69zm2.368-2.37l-1.689-1.689 1.69-1.694 1.693 1.694-1.694 1.69zm2.393-2.392l-1.69-1.69 1.69-1.694 1.693 1.694-1.693 1.69zm2.392-2.37l-1.69-1.689 1.69-1.694 1.694 1.694-1.694 1.69zm.68 4.064l-1.436 1.436-1.914 1.914-.335.34-4.737 4.738-1.784-1.168 10.148-10.15 1.354 1.349-1.297 1.54zm.435 1.594a9.735 9.735 0 0 1 1.579.45l-1.292 1.292a8.367 8.367 0 0 1-.598-1.436l.31-.306zm-1.436 1.436c.125.306.278.65.479 1.024a9.658 9.658 0 0 0-1.12-.378l.641-.646zM53.84 94.994c-1.568-.543-3-1.42-4.197-2.57l.589-.589c.818.723 1.608 1.1 1.852.857.244-.244-.25-1.268-1.187-2.202-.938-.933-1.914-1.464-2.196-1.187-.282.278.13 1.034.856 1.853l-.593.593a10.87 10.87 0 0 1-2.579-4.188l.311-.311a9.42 9.42 0 0 1 4.938 2.618 8.941 8.941 0 0 1 2.536 4.786l-.33.34zm1.53-1.532a10.482 10.482 0 0 0-2.722-4.609 10.808 10.808 0 0 0-5.139-2.632l8.288-8.29a8.99 8.99 0 0 1 4.827 2.523l.087.09a8.85 8.85 0 0 1 2.53 4.83l-7.87 8.088zm5.14-15.97l1.913-1.915c.42.245.82.521 1.197.828l-2.206 2.21a13.072 13.072 0 0 1-1.282-.975l.378-.149zm2.258 2.483l2.215-2.22c.311.373.593.77.842 1.186l-1.913 1.915a13.75 13.75 0 0 1-1.522-.732l.378-.149zm2.053 4.035a8.909 8.909 0 0 0-.393-1.154c.344.18.697.34 1.058.479l-.665.675zm1.78-1.78a9.405 9.405 0 0 1-1.436-.604l1.311-1.316c.197.515.346 1.047.445 1.59l-.32.33zm1.526-1.527a10.434 10.434 0 0 0-2.718-4.614 10.808 10.808 0 0 0-4.76-2.795l4.564-4.566a9.317 9.317 0 0 1 7.053 7.59l-4.14 4.385zm-6.742 11.486l-1.35-1.354 4.738-4.738.335-.34 1.914-1.915 1.435-1.436 1.694-1.694 1.354 1.355-10.12 10.122zm.641 4.561l-1.693-1.694 1.693-1.69 1.69 1.69-1.69 1.694zm2.393-2.393l-1.723-1.69 1.694-1.689 1.689 1.69-1.66 1.69zm2.368-2.369l-1.698-1.69 1.674-1.684 1.69 1.69-1.666 1.684zm2.369-2.369l-1.694-1.694 1.694-1.69 1.689 1.69-1.69 1.694zm2.392-2.393l-1.694-1.694 1.694-1.69 1.689 1.69-1.69 1.694zm2.364-2.369l-1.69-1.694 1.69-1.69 1.693 1.69-1.693 1.694zm-9.47 14.215l-1.746-1.666 1.694-1.69 1.689 1.69-1.636 1.666zm2.321-2.322l-1.674-1.713 1.693-1.69 1.69 1.69-1.709 1.713zm2.369-2.393l-1.694-1.694 1.694-1.69 1.689 1.69-1.69 1.694zm2.392-2.369l-1.694-1.694 1.67-1.68 1.69 1.69-1.666 1.684zm2.364-2.369l-1.69-1.694 1.69-1.69 1.693 1.69-1.693 1.694zm2.368-2.393l-1.689-1.694 1.69-1.69 1.693 1.69-1.694 1.694zm-9.469 14.215l-1.698-1.666 1.693-1.69 1.69 1.69-1.685 1.666zm2.369-2.393l-1.694-1.694 1.694-1.69 1.689 1.69-1.69 1.694zm2.392-2.37l-1.694-1.694 1.694-1.69 1.689 1.69-1.69 1.695zm2.364-2.392l-1.69-1.695 1.69-1.69 1.693 1.69-1.693 1.695zm2.368-2.37l-1.689-1.694 1.689-1.69 1.694 1.69-1.694 1.694zm2.392-2.369l-1.689-1.694 1.69-1.69 1.693 1.69-1.694 1.694zm-9.469 14.215l-1.693-1.694 1.693-1.69 1.69 1.69-1.69 1.694zm2.393-2.369l-1.694-1.694 1.694-1.69 1.689 1.69-1.69 1.694zM73.959 99l-1.689-1.694 1.69-1.69 1.693 1.69L73.96 99zm2.369-2.37l-1.69-1.693 1.69-1.69 1.694 1.69-1.694 1.694zm2.392-2.392l-1.689-1.695 1.69-1.689 1.693 1.69-1.694 1.694zm2.369-2.37l-1.69-1.694 1.69-1.69 1.693 1.69-1.693 1.695z"/>
	</g>
</svg>